<?xml version="1.0" encoding="UTF-8"?>
<svg id="Layer_1" data-name="Layer 1" xmlns="http://www.w3.org/2000/svg" xmlns:xlink="http://www.w3.org/1999/xlink" viewBox="0 0 1920 1080">
  <defs>
    <style>
      .cls-1, .cls-2, .cls-3, .cls-4, .cls-5, .cls-6, .cls-7, .cls-8, .cls-9, .cls-10, .cls-11, .cls-12, .cls-13, .cls-14, .cls-15, .cls-16, .cls-17, .cls-18, .cls-19, .cls-20, .cls-21, .cls-22, .cls-23, .cls-24, .cls-25, .cls-26, .cls-27, .cls-28, .cls-29, .cls-30, .cls-31, .cls-32, .cls-33, .cls-34, .cls-35, .cls-36, .cls-37, .cls-38, .cls-39, .cls-40 {
        fill: none;
      }

      .cls-41 {
        fill: url(#Unnamed_Pattern);
      }

      .cls-2 {
        stroke: #418664;
        stroke-width: 1.09px;
      }

      .cls-2, .cls-3, .cls-4, .cls-5, .cls-6, .cls-7, .cls-8, .cls-9, .cls-10, .cls-11, .cls-12, .cls-13, .cls-14, .cls-15, .cls-16, .cls-17, .cls-18, .cls-19, .cls-20, .cls-21, .cls-22, .cls-23, .cls-24, .cls-25, .cls-26, .cls-27, .cls-28, .cls-29, .cls-30, .cls-31, .cls-32, .cls-33, .cls-34, .cls-35, .cls-36, .cls-37, .cls-38, .cls-39, .cls-40 {
        stroke-miterlimit: 10;
      }

      .cls-3 {
        stroke-width: 1.08px;
      }

      .cls-3, .cls-5, .cls-9, .cls-10, .cls-12, .cls-13, .cls-14, .cls-15, .cls-16, .cls-17, .cls-19, .cls-21, .cls-22, .cls-23, .cls-24, .cls-27, .cls-28, .cls-29, .cls-30, .cls-31, .cls-33, .cls-35, .cls-37, .cls-38, .cls-39, .cls-40 {
        stroke: #59bb73;
      }

      .cls-4 {
        stroke: #32625b;
        stroke-width: 1.05px;
      }

      .cls-5 {
        stroke-width: .08px;
      }

      .cls-6 {
        stroke: #397460;
        stroke-width: 1.07px;
      }

      .cls-7 {
        stroke: #499769;
        stroke-width: 1.11px;
      }

      .cls-8 {
        stroke: #56bb73;
        stroke-width: .42px;
      }

      .cls-9 {
        stroke-width: .84px;
      }

      .cls-10 {
        stroke-width: .8px;
      }

      .cls-42 {
        fill: #1d3042;
      }

      .cls-11 {
        stroke: #54ba72;
        stroke-width: .32px;
      }

      .cls-12 {
        stroke-width: .12px;
      }

      .cls-13 {
        stroke-width: .92px;
      }

      .cls-14 {
        stroke-width: .46px;
      }

      .cls-15 {
        stroke-width: .72px;
      }

      .cls-16 {
        stroke-width: .36px;
      }

      .cls-17 {
        stroke-width: .11px;
      }

      .cls-18 {
        stroke: #2a5156;
        stroke-width: 1.04px;
      }

      .cls-19 {
        stroke-width: 1.03px;
      }

      .cls-20 {
        stroke-width: .13px;
      }

      .cls-20, .cls-34, .cls-36 {
        stroke: #4fb971;
      }

      .cls-21 {
        stroke-width: .52px;
      }

      .cls-22 {
        stroke-width: .4px;
      }

      .cls-23 {
        stroke-width: .79px;
      }

      .cls-24 {
        stroke-width: 1.59px;
      }

      .cls-25 {
        stroke: #223f51;
        stroke-width: 1.02px;
      }

      .cls-26 {
        stroke: #1a2d4c;
      }

      .cls-27 {
        stroke-width: .57px;
      }

      .cls-43 {
        opacity: .68;
      }

      .cls-28 {
        stroke-width: .6px;
      }

      .cls-29 {
        stroke-width: 1.19px;
      }

      .cls-30 {
        stroke-width: 1.2px;
      }

      .cls-31 {
        stroke-width: .15px;
      }

      .cls-32 {
        stroke: #52ba72;
        stroke-width: .23px;
      }

      .cls-33 {
        stroke-width: .34px;
      }

      .cls-34 {
        stroke-width: .17px;
      }

      .cls-35 {
        stroke-width: .69px;
      }

      .cls-44 {
        fill: url(#Unnamed_Pattern-11);
      }

      .cls-45 {
        fill: url(#Unnamed_Pattern-10);
      }

      .cls-36 {
        stroke-width: .34px;
      }

      .cls-37 {
        stroke-width: .48px;
      }

      .cls-38 {
        stroke-width: .23px;
      }

      .cls-46 {
        fill: url(#Unnamed_Pattern-7);
      }

      .cls-47 {
        fill: url(#Unnamed_Pattern-8);
      }

      .cls-48 {
        fill: url(#Unnamed_Pattern-5);
      }

      .cls-49 {
        fill: url(#Unnamed_Pattern-9);
      }

      .cls-50 {
        fill: url(#Unnamed_Pattern-2);
      }

      .cls-51 {
        fill: url(#Unnamed_Pattern-4);
      }

      .cls-52 {
        fill: url(#Unnamed_Pattern-6);
      }

      .cls-53 {
        fill: url(#Unnamed_Pattern-3);
      }

      .cls-39 {
        stroke-width: .24px;
      }

      .cls-40 {
        stroke-width: .96px;
      }
    </style>
    <pattern id="Unnamed_Pattern" data-name="Unnamed Pattern" x="0" y="0" width="1920" height="1080" patternTransform="translate(-1927.91 1287.52)" patternUnits="userSpaceOnUse" viewBox="0 0 1920 1080">
      <g>
        <rect class="cls-1" width="1920" height="1080"/>
        <rect class="cls-42" width="1920" height="1080"/>
      </g>
    </pattern>
    <pattern id="Unnamed_Pattern-2" data-name="Unnamed Pattern" patternTransform="translate(-8765.14 -14659.24) rotate(-149.64)" xlink:href="#Unnamed_Pattern"/>
    <pattern id="Unnamed_Pattern-3" data-name="Unnamed Pattern" patternTransform="translate(-8765.14 -14659.24) rotate(-149.64)" xlink:href="#Unnamed_Pattern"/>
    <pattern id="Unnamed_Pattern-4" data-name="Unnamed Pattern" patternTransform="translate(-8765.14 -14659.24) rotate(-149.64)" xlink:href="#Unnamed_Pattern"/>
    <pattern id="Unnamed_Pattern-5" data-name="Unnamed Pattern" patternTransform="translate(-8765.14 -14659.24) rotate(-149.64)" xlink:href="#Unnamed_Pattern"/>
    <pattern id="Unnamed_Pattern-6" data-name="Unnamed Pattern" patternTransform="translate(-8765.14 -14659.24) rotate(-149.64)" xlink:href="#Unnamed_Pattern"/>
    <pattern id="Unnamed_Pattern-7" data-name="Unnamed Pattern" patternTransform="translate(-8765.14 -14659.24) rotate(-149.64)" xlink:href="#Unnamed_Pattern"/>
    <pattern id="Unnamed_Pattern-8" data-name="Unnamed Pattern" patternTransform="translate(-8765.14 -14659.24) rotate(-149.64)" xlink:href="#Unnamed_Pattern"/>
    <pattern id="Unnamed_Pattern-9" data-name="Unnamed Pattern" patternTransform="translate(-8765.14 -14659.24) rotate(-149.64)" xlink:href="#Unnamed_Pattern"/>
    <pattern id="Unnamed_Pattern-10" data-name="Unnamed Pattern" patternTransform="translate(-8765.14 -14659.24) rotate(-149.64)" xlink:href="#Unnamed_Pattern"/>
    <pattern id="Unnamed_Pattern-11" data-name="Unnamed Pattern" patternTransform="translate(-8765.14 -14659.24) rotate(-149.64)" xlink:href="#Unnamed_Pattern"/>
  </defs>
  <g>
    <rect class="cls-42" x="0" y="-1068.85" width="1920.73" height="2485.65"/>
    <path class="cls-41" d="M1919.73-1067.85V1415.8H1V-1067.85H1919.73m1-1H0V1416.8H1920.73V-1068.85h0Z"/>
  </g>
  <g class="cls-43">
    <g>
      <path class="cls-42" d="M1330.26-386.85c.85,0,1.69,.01,2.57,.03,.52,0,1.03,0,1.55,0,34.09,0,70.6,9.04,102.8,25.45,33.96,17.3,63.98,41.69,89.25,72.47,23.88,29.1,42.94,63.15,56.65,101.22,13.3,36.92,21.05,76.11,23.05,116.49,2,40.48-1.88,80.26-11.53,118.23-18.14,71.32-54.09,141.06-106.86,207.27-45.24,56.77-103.39,111.69-172.84,163.23-31.3,23.23-64.19,45.5-95.99,67.04-59.28,40.15-120.58,81.66-174.03,131.02-44.36,40.96-79.79,85.2-105.31,131.49-29.02,52.64-43.95,106.02-44.38,158.65-.48,59.39,17.57,117.28,35.03,173.27,9.69,31.08,19.71,63.22,26.49,95.34,10.15,48.1,9.74,97.7-1.18,139.65-6.04,23.2-15.17,43.68-27.14,60.85-13.02,18.67-29.39,33.4-48.65,43.77-21.41,11.52-45.65,17.36-72.06,17.36-59.38,0-123.13-29.19-177.66-57.75-50.75-26.58-108.27-56.7-161.22-90.81-58.04-37.4-104.12-75.56-140.87-116.65-20.66-23.1-38.84-48.46-54.04-75.38-15.62-27.66-27.74-56.36-36.02-85.29-8.67-30.31-13-60.5-12.87-89.73,.14-30.99,5.32-60.84,15.39-88.71,18.46-51.09,52.93-95.36,86.27-138.17,37.16-47.72,75.58-97.06,91.64-155.82,12.61-46.15,10.5-95.05,8.45-142.33-.64-14.7-1.29-29.9-1.49-44.76-1.09-80.44,16.05-137.42,52.4-174.2,20.12-20.36,46.71-34.83,79.03-43.02,20.34-5.15,42.81-7.76,66.78-7.76,8.51,0,17.27,.33,26.05,.99h.03s.03,0,.03,0c20.57,.25,41.25,1.86,61.26,3.42,21.7,1.69,44.13,3.44,66.37,3.44,9.15,0,17.61-.28,25.89-.87h.04s.04,0,.04,0c12.48-1.82,25.76-4.17,39.82-6.66,18.61-3.29,37.85-6.69,58.89-9.58h.69c60.27,0,113.72-26.08,163.41-79.74,43.08-46.52,77.14-106.99,107.18-160.33,7.45-13.23,14.49-25.73,21.51-37.77l.02-.03,.02-.04c11.97-24.88,20.75-47.62,26.86-69.53,7.01-25.06,10.95-50.8,11.73-76.53,.32-22.44,11.33-42.95,30.99-57.76,18.09-13.63,42.13-21.44,65.95-21.44m0-1c-47.59,0-97.24,30.98-97.95,80.19-.81,26.81-4.95,52.16-11.69,76.27-6.74,24.14-16.07,47.05-26.8,69.37-65.01,111.49-140.11,277.35-291.24,277.35-.26,0-.5,0-.76,0-37.33,5.11-70.15,12.06-98.79,16.25-8.64,.61-17.24,.87-25.82,.87-42.65,0-84.66-6.33-127.61-6.85-8.62-.65-17.36-1-26.12-1-22.6,0-45.4,2.32-67.02,7.79-30.01,7.6-57.75,21.28-79.49,43.28-43.98,44.5-53.54,112.35-52.69,174.92,.85,62.56,9.57,126.46-6.92,186.81-30.37,111.12-138.74,185.57-177.89,293.92-41.79,115.66,5.76,248.45,87.74,340.12,81.97,91.67,193.42,150.63,302.36,207.68,55.1,28.86,118.37,57.86,178.13,57.86,25.08,0,49.54-5.11,72.53-17.48,81.11-43.64,96.5-155.24,77.47-245.36-19.02-90.12-62.23-176.29-61.49-268.39,.9-111.68,67.32-213.65,149.37-289.41,82.05-75.77,180.25-131.44,269.94-197.99,126.93-94.2,241.11-217.86,280.07-371.06,38.96-153.19-17.1-337.78-157.93-409.56-31.72-16.16-68.08-25.56-103.26-25.56-.52,0-1.03,0-1.55,0-.85-.02-1.71-.03-2.56-.03h0Z"/>
      <g>
        <path class="cls-17" d="M579.85,173.57c27.16-7.27,56.35-6.57,84.32-7.57,46.66-1.66,92.42,8.73,139.04,2.99,26.18-3.22,55.56-13.25,89.63-15.86,136.13-10.43,209.38-147.03,265.2-248.91,10.68-19.49,18.56-40.31,24.9-61.8,6.38-21.47,10.61-44.01,11.52-67.85,1.7-44.52,47.79-70.22,91.4-71.06,32.25-.62,65.63,8.41,94.67,23.2,127.34,64.84,177.93,230.43,143.06,368.35-34.83,137.64-137.24,249.21-251.47,334.64-80.48,60.08-168.68,110.5-242.64,178.78-73.85,68.18-133.89,159.65-135.75,259.74-1.49,82.51,36.05,159.73,52.06,240.44,16.03,80.7,1.46,180.47-71.56,219.82-70.81,38.21-156.79,2.51-228.34-32.75-100.06-49.31-202.54-100.42-277.1-183.55-73.72-82.31-116.44-202.22-79.04-306.89,34.99-97.78,131.71-165.5,160.22-265.14,15.59-54.5,8.84-112.08,8.85-168.52,.09-56.54,9.31-117.78,49.19-158.27,19.7-20,44.75-32.61,71.84-39.81Z"/>
        <path class="cls-42" d="M1289.01-295.62c29.46,0,61.82,8.22,91.12,23.14,30.71,15.64,57.86,37.6,80.69,65.29,21.59,26.17,38.82,56.78,51.23,90.99,12.03,33.17,19.07,68.4,20.91,104.7,1.85,36.38-1.59,72.16-10.24,106.36-16.22,64.1-48.45,126.87-95.8,186.56-40.62,51.21-92.88,100.87-155.35,147.58-28.25,21.09-57.94,41.32-86.66,60.89-53.1,36.19-108.02,73.61-156.05,117.95-39.91,36.85-71.89,76.6-95.04,118.13-26.32,47.22-40.12,95.08-40.99,142.25-.96,53.17,14.5,105.01,29.45,155.15,8.31,27.87,16.91,56.69,22.62,85.49,8.57,43.14,7.73,87.53-2.37,125.01-5.6,20.78-13.94,39.12-24.8,54.52-11.81,16.75-26.59,29.98-43.93,39.33-20.09,10.84-42.92,16.34-67.86,16.34-52.75,0-107.91-23.6-159.67-49.1-46.59-22.96-99.39-48.98-148.04-79.05-53.24-32.91-95.37-67.03-128.79-104.29-18.57-20.73-34.92-43.55-48.6-67.8-14.05-24.91-24.95-50.79-32.4-76.91-16.12-56.5-15.38-112.27,2.13-161.29,16.67-46.58,47.91-86.99,78.11-126.07,33.03-42.73,67.19-86.92,82.13-139.13,12.01-41.97,10.79-86.39,9.6-129.34-.36-12.95-.73-26.33-.72-39.42,.05-32.95,3.21-60.73,9.65-84.93,7.94-29.85,21.16-54.32,39.29-72.72,18.23-18.51,42.27-31.83,71.44-39.58,22.26-5.96,46.11-6.54,69.18-7.11,4.91-.12,9.99-.25,14.94-.42,3.38-.12,6.92-.18,10.52-.18,16.37,0,32.92,1.25,48.93,2.46,15.99,1.21,32.52,2.46,48.84,2.46,11.16,0,21.24-.57,30.82-1.75,11.01-1.36,22.56-3.9,34.79-6.6,17.24-3.8,35.07-7.74,54.8-9.25,59.93-4.59,112.85-33.62,161.8-88.74,42.11-47.42,73.99-105.62,102.11-156.98l2-3.65c9.75-17.8,17.92-38.07,24.98-61.97,6.92-23.28,10.7-45.54,11.56-68.07,1.7-44.5,47.91-69.38,90.53-70.2,1.04-.02,2.08-.03,3.13-.03m0-.89c-1.05,0-2.1,.01-3.15,.03-43.61,.84-89.7,26.54-91.4,71.06-.91,23.84-5.14,46.38-11.52,67.85-6.34,21.49-14.23,42.31-24.9,61.8-55.82,101.88-129.07,238.48-265.2,248.91-34.07,2.61-63.45,12.63-89.63,15.86-10.28,1.27-20.51,1.75-30.72,1.75-32.62,0-65.01-4.92-97.78-4.92-3.51,0-7.03,.06-10.55,.18-27.97,.99-57.15,.29-84.32,7.56-27.1,7.2-52.14,19.81-71.84,39.81-39.88,40.49-49.1,101.73-49.19,158.27,0,56.45,6.75,114.03-8.85,168.52-28.51,99.64-125.23,167.36-160.22,265.14-37.4,104.67,5.33,224.58,79.04,306.89,74.56,83.13,177.04,134.24,277.1,183.55,49.7,24.49,106.36,49.19,160.06,49.19,23.61,0,46.66-4.78,68.28-16.45,73.01-39.35,87.59-139.12,71.56-219.82-16.01-80.71-53.55-157.94-52.06-240.44,1.86-100.08,61.9-191.55,135.75-259.74,73.95-68.28,162.15-118.7,242.64-178.78,114.24-85.43,216.64-197,251.47-334.64,34.87-137.92-15.72-303.51-143.06-368.35-28.1-14.31-60.25-23.23-91.52-23.23h0Z"/>
      </g>
      <g>
        <path class="cls-38" d="M603.24,214.76c24.33-6.89,50.47-6.94,75.49-8.33,41.75-2.32,82.84,5.91,124.65,0,23.59-3.34,49.92-12.73,80.47-15.47,120.95-10.81,187.39-130.9,238.41-220.47,9.75-17.11,17.06-35.39,23-54.24,6.01-18.82,10.12-38.57,11.35-59.43,2.29-38.95,43.43-62.54,82.3-61.96,28.86,.43,58.63,7.68,84.52,20.85,113.84,57.91,158.97,204.49,128.18,327.15-30.71,122.09-121.34,221.56-222.88,298.22-71.28,53.61-149.48,98.78-215.34,159.58-65.64,60.6-119.31,141.57-122.13,230.06-2.24,72.91,29.62,141.18,42.62,212.5,13.05,71.28-.72,159.23-65.64,194.28-63.85,34.58-141.17,4.45-206.03-25.11-91.2-41.56-184.69-84.83-251.84-159.41-65.46-72.95-103.36-179.98-70.35-273.67,30.85-87.22,115.92-148.21,142.56-236.37,14.7-48.64,9.9-99.9,10.77-150.23,1.03-50.51,9.92-105.15,45.69-141.62,17.66-18.01,40.03-29.49,64.19-36.34Z"/>
        <path class="cls-42" d="M1237.51-204.37c.46,0,.92,0,1.39,.01,28.81,.43,58.7,7.8,84.18,20.77,27.46,13.97,51.73,33.52,72.14,58.1,19.29,23.24,34.71,50.42,45.81,80.77,10.76,29.42,17.08,60.68,18.78,92.91,1.7,32.27-1.31,64.07-8.95,94.49-26.73,106.26-101.62,206.45-222.59,297.79-25.2,18.95-51.71,37.15-77.34,54.76-46.93,32.22-95.45,65.54-138.05,104.87-35.47,32.74-63.99,67.99-84.77,104.76-23.62,41.8-36.28,84.14-37.61,125.85-1.44,46.95,11.43,92.74,23.88,137.02,6.93,24.66,14.11,50.17,18.75,75.64,6.99,38.17,5.72,77.37-3.57,110.38-5.16,18.36-12.72,34.57-22.46,48.19-10.6,14.82-23.79,26.56-39.21,34.89-18.82,10.2-40.31,15.36-63.86,15.36-46.24,0-95.32-19.46-141.48-40.5-42.4-19.32-90.46-41.22-134.86-67.29-48.43-28.43-86.61-58.5-116.72-91.94-16.48-18.37-31-38.63-43.15-60.22-12.47-22.16-22.15-45.21-28.78-68.53-14.33-50.4-13.73-100.24,1.74-144.14,14.89-42.09,42.91-78.67,70-114.04,28.9-37.73,58.78-76.74,72.57-122.36,11.42-37.81,11.1-77.76,10.79-116.4-.09-11.18-.18-22.73,.01-34.04,.6-29.54,3.8-54.36,9.79-75.88,7.43-26.7,19.43-48.64,35.68-65.21,16.27-16.58,37.75-28.74,63.85-36.13,20.17-5.71,41.78-6.71,62.67-7.68,4.16-.19,8.46-.39,12.65-.62,5.13-.28,10.41-.42,16.17-.42,12.36,0,24.9,.66,37.02,1.3,12.13,.64,24.66,1.3,37.03,1.3s24.06-.72,34.49-2.19c9.8-1.39,20.04-3.81,30.88-6.37,15.59-3.69,31.7-7.5,49.55-9.09,53-4.74,100.12-30.53,144.04-78.86,37.82-41.61,66.84-92.59,92.44-137.56l2.53-4.44c8.91-15.64,16.46-33.43,23.07-54.38,6.5-20.34,10.22-39.84,11.38-59.62,2.25-38.33,42.51-61.24,80.12-61.24m0-.78c-38.45,0-78.64,23.49-80.9,61.97-1.23,20.86-5.33,40.6-11.35,59.43-5.95,18.84-13.26,37.12-23,54.24-51.02,89.57-117.46,209.66-238.4,220.47-30.55,2.73-56.88,12.13-80.47,15.47-11.51,1.63-22.95,2.18-34.38,2.18-24.71,0-49.3-2.6-74.06-2.6-5.4,0-10.8,.12-16.22,.42-25.02,1.39-51.16,1.44-75.49,8.33-24.17,6.85-46.53,18.33-64.19,36.34-35.77,36.47-44.66,91.11-45.69,141.62-.86,50.33,3.93,101.59-10.77,150.23-26.63,88.15-111.71,149.15-142.56,236.37-33.01,93.69,4.89,200.72,70.35,273.67,67.15,74.58,160.64,117.85,251.84,159.41,44.22,20.15,94.21,40.57,141.8,40.57,22.21,0,43.91-4.45,64.23-15.46,64.91-35.05,78.69-123,65.64-194.28-13-71.31-44.86-139.59-42.62-212.5,2.83-88.49,56.49-169.46,122.13-230.06,65.86-60.8,144.06-105.97,215.34-159.58,101.54-76.66,192.17-176.13,222.88-298.22,30.79-122.66-14.35-269.24-128.18-327.15-25.89-13.18-55.67-20.42-84.52-20.85-.47,0-.93-.01-1.4-.01h0Z"/>
      </g>
      <g>
        <path class="cls-33" d="M626.63,255.95c21.49-6.54,44.59-7.32,66.66-9.1,36.84-2.99,73.26,3.08,110.26-3,21-3.45,44.29-12.22,71.32-15.07,105.76-11.17,165.39-114.77,211.61-192.03,8.81-14.74,15.51-30.49,21.1-46.67s9.64-33.12,11.18-51.01c2.88-33.38,39.07-53.53,73.19-52.86,25.46,.51,51.63,6.94,74.38,18.5,100.34,50.98,140.01,178.56,113.31,285.95-26.58,106.53-105.45,193.91-194.29,261.8-62.08,47.14-130.28,87.06-188.04,140.37-57.44,53.02-104.72,123.49-108.52,200.39-2.99,63.31,23.2,122.64,33.18,184.55,10.06,61.86-2.9,137.99-59.72,168.74-56.89,30.95-125.57,6.39-183.71-17.47-82.36-33.8-166.84-69.24-226.57-135.28-57.2-63.59-90.28-157.74-61.66-240.44,26.7-76.65,100.15-130.93,124.89-207.59,13.81-42.79,10.85-87.73,12.69-131.94,1.85-44.49,10.52-92.52,42.19-124.98,15.62-16.01,35.3-26.4,56.54-32.86Z"/>
        <path class="cls-42" d="M1190.28-113.14c.55,0,1.1,0,1.66,.02,25.39,.5,51.7,7.05,74.09,18.43,24.21,12.3,45.6,29.43,63.58,50.92,17,20.32,30.59,44.05,40.39,70.54,9.5,25.67,15.1,52.96,16.64,81.12,1.55,28.17-1.03,55.97-7.65,82.62-23.15,92.77-88.44,180.73-194.04,261.43-22.15,16.82-45.49,33-68.06,48.65-40.74,28.25-82.86,57.46-120.03,91.76-31.02,28.63-56.09,59.38-74.5,91.4-20.93,36.38-32.44,73.2-34.23,109.45-1.93,40.73,8.36,80.46,18.32,118.89,5.56,21.46,11.3,43.64,14.87,65.8,5.4,33.2,3.71,67.2-4.76,95.74-9.89,33.32-28.78,58.32-54.62,72.31-17.87,9.72-37.55,14.45-60.16,14.45-41.65,0-85.32-16.49-122.98-31.95-77.62-31.86-165.6-67.97-226.33-135.11-14.39-16-27.08-33.71-37.71-52.65-10.89-19.4-19.36-39.64-25.16-60.14-12.54-44.3-12.08-88.21,1.34-126.99,13.11-37.64,37.94-70.42,61.95-102.12,24.76-32.68,50.35-66.47,62.95-105.49,10.77-33.37,11.38-68.54,11.97-102.56,.17-9.7,.34-19.73,.75-29.56,1.08-26.03,4.32-47.89,9.89-66.84,6.92-23.54,17.72-42.95,32.11-57.7,14.34-14.7,33.27-25.69,56.26-32.69,18.06-5.5,37.4-6.92,56.11-8.29,3.42-.25,6.96-.51,10.42-.79,7.41-.6,15.22-.88,24.59-.88,7.46,0,15.05,.18,22.38,.36,7.34,.18,14.94,.36,22.42,.36,16.34,0,28.96-.88,40.93-2.84,8.59-1.41,17.53-3.7,26.99-6.12,13.93-3.57,28.33-7.26,44.29-8.94,46.07-4.86,87.37-27.42,126.25-68.96,33.52-35.81,59.66-79.55,82.72-118.15l3.14-5.25c7.93-13.26,14.85-28.57,21.16-46.79,6.1-17.62,9.76-34.35,11.21-51.17,1.66-19.23,13.92-31.42,23.92-38.26,13.01-8.9,30.12-14.01,46.93-14.01m0-.67c-33.62,0-68.69,20.04-71.52,52.87-1.54,17.88-5.57,34.81-11.18,51.01-5.6,16.18-12.29,31.93-21.1,46.67-46.22,77.26-105.84,180.86-211.61,192.03-27.03,2.85-50.32,11.62-71.32,15.07-13.67,2.25-27.26,2.84-40.82,2.84-14.95,0-29.86-.72-44.8-.72-8.2,0-16.41,.22-24.63,.88-22.07,1.79-45.17,2.56-66.66,9.1-21.24,6.47-40.92,16.85-56.54,32.86-31.66,32.46-40.34,80.49-42.19,124.98-1.84,44.21,1.12,89.15-12.69,131.94-24.74,76.67-98.2,130.94-124.89,207.59-28.62,82.7,4.46,176.85,61.66,240.44,59.74,66.04,144.21,101.47,226.57,135.28,38.61,15.85,81.86,32,123.23,32,20.92,0,41.37-4.13,60.48-14.53,56.82-30.76,69.78-106.89,59.72-168.74-9.99-61.91-36.18-121.23-33.18-184.55,3.79-76.9,51.08-147.37,108.52-200.39,57.76-53.31,125.96-93.24,188.04-140.37,88.84-67.89,167.7-155.27,194.29-261.8,26.7-107.39-12.97-234.96-113.31-285.95-22.75-11.56-48.92-18-74.38-18.5-.56-.01-1.11-.02-1.67-.02h0Z"/>
      </g>
      <g>
        <path class="cls-14" d="M650.02,297.14c18.65-6.19,38.62-8.67,57.84-9.87,32.07-2.01,63.68,.24,95.87-6,18.41-3.57,38.65-11.7,62.16-14.68,90.58-11.5,143.39-98.64,184.81-163.59,7.88-12.36,13.99-25.58,19.2-39.1,5.23-13.56,9.15-27.68,11.01-42.58,3.46-27.82,34.71-44.53,64.09-43.76,22.06,.58,44.63,6.2,64.23,16.15,86.84,44.05,121.06,152.62,98.44,244.74-22.46,90.98-89.41,166.44-165.69,225.38-52.79,40.79-111.08,75.34-160.74,121.17-49.24,45.44-90.14,105.42-94.9,170.72-3.74,53.72,16.77,104.1,23.75,156.6,7.07,52.44-5.08,116.75-53.81,143.21-49.94,27.32-110,8.35-161.39-9.83-73.58-26.03-149.1-53.54-201.31-111.14-49.06-54.13-77.2-135.5-52.97-207.21,22.55-66.09,84.42-113.65,107.23-178.82,12.93-36.94,11.89-75.56,14.61-113.65s11.13-79.89,38.69-108.33c13.58-14.01,30.57-23.31,48.89-29.39Z"/>
        <path class="cls-42" d="M1143.03-22.48v.56c.65,0,1.3,0,1.95,.03,21.96,.58,44.69,6.3,64,16.09,20.96,10.63,39.47,25.35,55.03,43.73,14.71,17.39,26.48,37.68,34.97,60.31,16.59,44.18,19.48,93.92,8.15,140.07-19.67,79.7-75.35,155.43-165.49,225.08-19.42,15.01-39.96,29.43-59.81,43.37-34.2,24.01-69.56,48.85-100.96,77.83-26.58,24.52-48.19,50.78-64.23,78.03-18.23,30.96-28.6,62.27-30.85,93.05-2.4,34.5,5.3,68.18,12.75,100.75,4.18,18.25,8.49,37.13,11,55.96,3.81,28.23,1.69,57.04-5.96,81.1-8.98,28.24-25.42,49.52-47.56,61.54-16.77,9.18-35.41,13.64-56.99,13.64-34.63,0-70.34-11.61-103.95-23.5-69.34-24.53-147.93-52.34-201.08-110.99-24.9-27.48-44.02-61.85-53.84-96.79-10.73-38.19-10.39-76.19,.99-109.87,11.35-33.26,33.04-62.29,54.01-90.37,20.59-27.57,41.89-56.08,53.22-88.45,10.21-29.16,11.75-59.81,13.24-89.45,.4-7.99,.82-16.25,1.4-24.34,2.26-31.62,8.72-77.22,38.53-107.98,12.42-12.81,28.79-22.65,48.67-29.25,20.72-6.88,42.85-8.92,57.7-9.85,10.71-.67,21.54-.87,32.02-1.06,20.86-.38,42.44-.78,63.92-4.94,7.39-1.43,15.02-3.58,23.11-5.86,12.27-3.46,24.95-7.03,39.02-8.82,39.12-4.97,74.58-24.28,108.4-59.04,29.2-30.01,52.44-66.52,72.94-98.74,1.3-2.04,2.59-4.07,3.86-6.07,7.04-11.04,13.34-23.86,19.25-39.2,5.69-14.74,9.3-28.72,11.04-42.72,1.99-15.96,12.67-26.05,21.29-31.69,11.24-7.37,25.93-11.6,40.28-11.6v-.56m0,0c-28.79,0-58.73,16.58-62.12,43.78-1.86,14.9-5.78,29.03-11.01,42.58-5.21,13.52-11.32,26.74-19.2,39.1-41.42,64.95-94.23,152.09-184.81,163.59-23.51,2.99-43.75,11.12-62.16,14.68-32.19,6.24-63.8,3.98-95.87,6-19.22,1.21-39.19,3.68-57.84,9.87-18.32,6.08-35.31,15.38-48.89,29.39-27.56,28.44-35.93,69.87-38.69,108.33-2.73,38.08-1.68,76.7-14.61,113.65-22.82,65.17-84.68,112.73-107.23,178.82-24.23,71.72,3.91,153.09,52.97,207.21,52.21,57.6,127.73,85.11,201.31,111.14,32.81,11.61,69.15,23.54,104.14,23.54,19.82,0,39.2-3.83,57.26-13.71,48.72-26.46,60.87-90.77,53.81-143.21-6.97-52.5-27.49-102.88-23.75-156.6,4.76-65.3,45.67-125.28,94.9-170.72,49.66-45.83,107.95-80.38,160.74-121.17,76.28-58.94,143.23-134.4,165.69-225.38,22.62-92.12-11.59-200.69-98.44-244.74-19.6-9.95-42.17-15.57-64.23-16.15-.65-.02-1.31-.03-1.96-.03h0Z"/>
      </g>
      <g>
        <path class="cls-27" d="M673.41,338.34c15.81-5.85,32.7-8.8,49.01-10.64,27.19-3.08,54.09-2.6,81.48-8.99,15.81-3.69,33.01-11.17,53-14.29,75.39-11.79,121.39-82.53,158.01-135.16,6.95-9.99,12.48-20.68,17.3-31.54s8.65-22.25,10.84-34.16c4.02-22.27,30.35-35.53,54.98-34.65,18.66,.66,37.63,5.47,54.09,13.8,73.34,37.12,102.1,126.68,83.56,203.54-18.34,75.43-73.48,138.83-137.1,188.97-43.57,34.34-91.87,63.62-133.44,101.96-41.03,37.85-75.69,87.32-81.29,141.04-4.6,44.11,10.35,85.55,14.31,128.65,4.08,43.02-7.31,95.41-47.89,117.67-43.03,23.6-94.48,10.35-139.08-2.19-64.85-18.23-131.28-37.93-176.05-87.01-40.82-44.75-64.25-113.3-44.27-173.99,18.29-55.57,68.72-96.37,89.57-150.05,12.08-31.1,12.93-63.4,16.53-95.35,3.66-32.45,11.73-67.26,35.18-91.68,11.54-12.01,25.85-20.22,41.24-25.92Z"/>
        <path class="cls-42" d="M1095.74,68.85v.44c.76,0,1.53,.01,2.28,.04,18.54,.66,37.69,5.54,53.9,13.76,17.71,8.96,33.34,21.26,46.47,36.55,12.42,14.47,22.36,31.32,29.55,50.08,14,36.54,16.6,77.88,7.31,116.41-16.12,66.31-62.19,129.81-136.94,188.72-16.47,12.98-33.94,25.47-50.84,37.55-27.91,19.95-56.77,40.58-82.63,64.44-22.17,20.45-40.34,42.21-54.01,64.67-15.56,25.56-24.78,51.35-27.42,76.66-2.95,28.28,2.2,55.9,7.18,82.62,2.8,15.05,5.7,30.61,7.13,46.12,2.2,23.24-.34,46.84-7.18,66.43-8.18,23.46-21.8,40.56-40.48,50.8-15.92,8.73-33.88,12.98-54.9,12.98-27.46,0-55.33-7.19-83.84-15.21-34.8-9.78-66-18.93-95.49-31.91-33.96-14.94-60.24-32.92-80.34-54.97-20.69-22.69-36.62-51.39-44.83-80.84-8.96-32.11-8.74-64.17,.65-92.71,9.56-29.05,28.23-54.47,46.29-79.05,16.39-22.31,33.33-45.37,43.27-70.98,9.71-25.02,12.22-51.19,14.64-76.51,.59-6.22,1.21-12.65,1.92-18.96,2.16-19.16,5.48-35.11,10.15-48.76,5.98-17.48,14.12-31.43,24.91-42.67,10.5-10.93,24.32-19.61,41.07-25.81,13.51-5,29.05-8.37,48.91-10.62,9.26-1.05,18.64-1.69,27.72-2.32,17.56-1.21,35.73-2.46,53.81-6.68,6.19-1.44,12.53-3.45,19.25-5.57,10.6-3.35,21.56-6.81,33.72-8.71,72.31-11.31,117.32-76.23,153.48-128.4,1.63-2.35,3.23-4.66,4.82-6.95,6.22-8.93,11.73-18.98,17.35-31.61,5.24-11.79,8.8-23,10.87-34.26,4.02-22.3,29.92-34.33,52.25-34.33v-.44m0,0c-23.95,0-48.79,13.12-52.69,34.7-2.19,11.92-5.98,23.24-10.84,34.16-4.83,10.86-10.35,21.55-17.3,31.54-36.62,52.63-82.62,123.37-158.01,135.16-19.99,3.13-37.19,10.6-53,14.29-27.39,6.39-54.29,5.92-81.48,8.99-16.31,1.85-33.2,4.79-49.01,10.64-15.39,5.7-29.7,13.9-41.24,25.92-23.45,24.43-31.52,59.24-35.18,91.68-3.61,31.96-4.46,64.25-16.53,95.35-20.84,53.68-71.28,94.48-89.57,150.05-19.97,60.69,3.46,129.24,44.27,173.99,44.77,49.08,111.2,68.78,176.05,87.01,26.63,7.49,55.69,15.22,83.96,15.22,19.07,0,37.78-3.53,55.12-13.03,40.58-22.25,51.97-74.65,47.89-117.67-3.96-43.1-18.91-84.54-14.31-128.65,5.6-53.72,40.25-103.19,81.29-141.04,41.57-38.34,89.88-67.63,133.44-101.96,63.61-50.14,118.76-113.54,137.1-188.97,18.53-76.86-10.22-166.42-83.56-203.54-16.46-8.34-35.43-13.14-54.09-13.8-.77-.03-1.53-.04-2.3-.04h0Z"/>
      </g>
      <g>
        <path class="cls-35" d="M696.8,379.53c12.97-5.51,26.78-8.93,40.18-11.41,22.3-4.14,44.5-5.46,67.09-11.99,13.22-3.82,27.37-10.62,43.84-13.9,60.22-12.01,99.38-66.43,131.21-106.72,6.02-7.62,10.96-15.77,15.41-23.97s8.2-16.8,10.67-25.74c4.68-16.7,25.99-26.52,45.88-25.55,15.26,.74,30.63,4.73,43.94,11.45,59.85,30.19,83.14,100.75,68.69,162.34-14.21,59.88-57.56,111.2-108.5,152.55-34.35,27.88-72.67,51.9-106.14,82.76-32.83,30.27-61.12,69.23-67.67,111.37-5.36,34.51,3.85,67.01,4.87,100.71,1.02,33.6-9.5,74.17-41.97,92.13-36.07,19.95-79.01,12.4-116.76,5.45-56.21-10.35-113.44-22.32-150.78-62.87-32.57-35.38-51.18-91.06-35.58-140.76,14.13-45,53.11-79.09,71.9-121.27,11.26-25.27,13.98-51.24,18.46-77.06s12.34-54.62,31.68-75.04c9.5-10.02,21.12-17.14,33.59-22.44Z"/>
        <path class="cls-42" d="M1048.39,160.5c.89,0,1.79,.02,2.68,.06,15.34,.74,30.49,4.69,43.81,11.42,28.36,14.31,49.81,38.24,62.05,69.22,11.42,28.91,13.72,61.85,6.47,92.74-12.56,52.92-49.03,104.19-108.39,152.37-13.54,10.99-27.98,21.59-41.95,31.84-21.6,15.85-43.93,32.24-64.21,50.94-17.74,16.36-32.46,33.62-43.75,51.3-12.86,20.15-20.95,40.42-24.03,60.26-3.44,22.13-.85,43.78,1.64,64.72,1.4,11.77,2.86,23.93,3.22,36.05,.39,12.95-.75,32.44-8.4,51.8-7.24,18.31-18.48,31.78-33.4,40.03-15.56,8.6-33.64,12.79-55.29,12.79s-43.4-4.09-61.25-7.38c-28.67-5.28-56.55-10.79-82.41-20.09-29.07-10.46-51.38-24.42-68.19-42.68-16.47-17.88-29.17-40.92-35.78-64.87-7.18-26.01-7.08-52.14,.27-75.56,7.85-25.02,23.64-46.99,38.91-68.24,12.11-16.86,24.64-34.29,32.98-53,9.35-20.99,12.88-42.8,16.29-63.9,.7-4.34,1.43-8.83,2.19-13.24,4.1-23.67,11.4-53.56,31.59-74.87,8.7-9.18,19.66-16.49,33.48-22.37,11.25-4.78,24-8.4,40.11-11.39,7.85-1.46,15.83-2.58,23.55-3.67,14.22-2.01,28.92-4.09,43.57-8.32,4.99-1.44,10.06-3.29,15.43-5.24,8.92-3.25,18.15-6.61,28.39-8.65,56.46-11.26,94.55-59.84,125.16-98.88,2.12-2.7,4.2-5.36,6.25-7.96,5.27-6.67,10.18-14.31,15.44-24.02,4.9-9.06,8.4-17.5,10.7-25.81,2.09-7.47,7.61-13.9,15.95-18.59,7.79-4.38,17.34-6.79,26.91-6.79h0m0-.33c-19.08,0-38.71,9.67-43.18,25.62-2.47,8.94-6.18,17.45-10.67,25.74-4.44,8.2-9.39,16.36-15.41,23.97-31.83,40.29-70.99,94.71-131.21,106.72-16.47,3.29-30.63,10.08-43.84,13.9-22.59,6.53-44.78,7.85-67.09,11.99-13.4,2.49-27.21,5.9-40.18,11.41-12.47,5.3-24.09,12.43-33.59,22.44-19.35,20.41-27.1,48.6-31.68,75.04-4.48,25.83-7.2,51.79-18.46,77.06-18.79,42.18-57.78,76.27-71.9,121.27-15.6,49.7,3.01,105.38,35.58,140.76,37.34,40.56,94.58,52.53,150.78,62.87,19.6,3.61,40.6,7.38,61.31,7.38,19.18,0,38.11-3.24,55.45-12.83,32.48-17.96,42.99-58.53,41.97-92.13-1.02-33.69-10.23-66.2-4.87-100.71,6.55-42.14,34.84-81.1,67.67-111.37,33.47-30.86,71.79-54.88,106.14-82.76,50.94-41.34,94.29-92.67,108.5-152.55,14.45-61.59-8.84-132.14-68.69-162.34-13.31-6.72-28.68-10.71-43.94-11.45-.9-.04-1.8-.07-2.7-.07h0Z"/>
      </g>
      <g>
        <path class="cls-10" d="M720.19,420.72c10.13-5.19,20.85-9.05,31.36-12.18,17.4-5.19,34.89-8.33,52.7-14.99,10.61-3.97,21.75-10.03,34.69-13.51,45.08-12.12,77.38-50.36,104.41-78.28,5.09-5.25,9.46-10.87,13.51-16.41s7.71-11.38,10.5-17.32c5.25-11.18,21.64-17.5,36.77-16.45,11.86,.82,23.63,3.99,33.8,9.1,46.35,23.26,64.18,74.81,53.82,121.13-10.09,44.33-41.65,83.56-79.91,116.13-25.14,21.41-53.47,40.18-78.84,63.55-24.63,22.69-46.55,51.14-54.05,81.7-6.12,24.9-2.58,48.46-4.57,72.76s-11.67,52.93-36.05,66.59c-29.12,16.32-63.6,14.58-94.44,13.09-47.65-2.3-95.6-6.71-125.52-38.74-24.31-26.02-38.11-68.82-26.89-107.54,9.98-34.44,37.64-61.79,54.24-92.5,10.51-19.43,15.05-39.08,20.38-58.77s12.94-41.99,28.18-58.39c7.46-8.02,16.39-14.08,25.94-18.97Z"/>
        <path class="cls-42" d="M1000.84,251.46v.22h0c1.09,0,2.19,.04,3.27,.11,11.88,.82,23.53,3.96,33.71,9.08,21.96,11.02,38.58,28.93,48.07,51.81,8.83,21.29,10.83,45.82,5.63,69.08-9,39.54-35.86,78.57-79.84,116.01-10.68,9.09-22.18,17.9-33.3,26.41-15.22,11.65-30.95,23.7-45.55,37.15-20.06,18.48-45.73,47.68-54.12,81.81-3.9,15.86-3.88,31.42-3.87,46.47,0,8.6,.02,17.49-.7,26.32-.77,9.43-3.06,23.53-9.6,37.16-6.31,13.16-15.17,23-26.34,29.26-22.1,12.38-46.83,13.97-65.9,13.97-9.5,0-18.91-.45-28.02-.89l-.41-.02c-49.25-2.38-95.9-7.12-125.37-38.67-12.24-13.1-21.72-30.47-26.72-48.91-5.39-19.9-5.43-40.1-.12-58.41,6.26-21.6,19.64-40.63,32.58-59.04,7.6-10.81,15.46-21.99,21.64-33.42,9.32-17.24,14.04-34.96,18.6-52.09,.6-2.24,1.19-4.48,1.8-6.72,2.32-8.58,5.61-19.83,10.44-30.67,4.94-11.09,10.72-20.13,17.69-27.62,6.78-7.29,15.25-13.48,25.88-18.92,8.88-4.55,19.13-8.53,31.32-12.17,6.55-1.95,13.23-3.65,19.7-5.29,10.77-2.73,21.9-5.55,33.01-9.7,3.79-1.42,7.59-3.08,11.62-4.84,7.25-3.16,14.74-6.44,23.05-8.67,40.28-10.83,70.94-43.08,95.58-68.99,3.1-3.26,6.02-6.34,8.94-9.34,5.53-5.71,10.13-11.78,13.53-16.43,4.47-6.13,7.92-11.81,10.52-17.35,4.55-9.68,18.23-16.44,33.28-16.44v-.22m0,0c-14.15,0-28.61,6.19-33.48,16.57-2.79,5.94-6.38,11.67-10.5,17.32-4.04,5.54-8.42,11.16-13.51,16.41-27.03,27.92-59.34,66.16-104.41,78.28-12.94,3.48-24.08,9.55-34.69,13.51-17.8,6.66-35.3,9.79-52.7,14.99-10.51,3.14-21.22,6.99-31.36,12.18-9.55,4.89-18.48,10.95-25.94,18.97-15.24,16.4-22.65,37.97-28.18,58.39-5.33,19.69-9.87,39.34-20.38,58.77-16.61,30.71-44.26,58.06-54.24,92.5-11.22,38.72,2.58,81.52,26.89,107.54,29.92,32.02,77.87,36.44,125.52,38.74,9.23,.45,18.79,.91,28.44,.91,22.57,0,45.61-2.57,66.01-14,24.38-13.66,34.08-42.42,36.05-66.59,1.99-24.3-1.55-47.86,4.57-72.76,7.51-30.56,29.43-59.01,54.05-81.7,25.37-23.37,53.7-42.15,78.84-63.55,38.26-32.57,69.82-71.8,79.91-116.13,10.36-46.32-7.47-97.87-53.82-121.13-10.17-5.11-21.93-8.28-33.8-9.1-1.09-.08-2.19-.11-3.29-.11h0Z"/>
      </g>
      <g>
        <path class="cls-13" d="M743.59,461.91c7.28-4.89,14.91-9.15,22.53-12.95,12.47-6.21,25.25-11.23,38.31-17.98,7.98-4.13,16.16-9.38,25.53-13.12,30.06-12.01,55.41-34.36,77.62-49.84,4.16-2.9,7.98-5.96,11.61-8.84s7.26-5.96,10.33-8.9c5.91-5.66,17.28-8.47,27.67-7.35,8.47,.92,16.63,3.26,23.65,6.75,32.85,16.33,45.3,48.89,38.94,79.93-5.89,28.79-25.77,55.87-51.31,79.71-15.96,14.9-34.27,28.46-51.54,44.35-16.42,15.11-31.94,33.04-40.44,52.02-6.85,15.29-8.99,29.9-14,44.81-4.95,14.74-13.84,31.71-30.14,41.05-22.15,12.71-48.21,16.99-72.13,20.73-39.12,6.11-77.73,8.86-100.26-14.6-16.02-16.69-25-46.57-18.2-74.31,5.85-23.86,22.43-44.39,36.58-63.73,9.91-13.54,16.17-26.91,22.3-40.48,6.52-14.41,13.54-29.36,24.68-41.74,5.42-6.02,11.65-11.04,18.29-15.5Z"/>
        <path class="cls-42" d="M952.59,342.68v.11h0c1.54,0,3.07,.08,4.57,.24,8.42,.91,16.59,3.24,23.62,6.74,15.58,7.75,27.38,19.64,34.12,34.4,6.35,13.9,8,29.6,4.76,45.41-5.34,26.07-22.59,52.87-51.28,79.65-8.11,7.57-16.65,14.65-25.69,22.14-8.53,7.07-17.35,14.38-25.85,22.2-19.35,17.8-32.97,35.32-40.46,52.06-4.24,9.47-6.71,18.81-9.11,27.84-1.47,5.55-2.99,11.29-4.9,16.98-6.56,19.51-16.68,33.3-30.09,40.99-22.64,12.99-50.06,17.27-72.09,20.71-12.69,1.98-29.24,4.26-44.66,4.26-12.02,0-22.13-1.33-30.92-4.06-9.99-3.11-18.03-7.94-24.59-14.77-8-8.33-14.26-20.04-17.63-32.96-3.59-13.77-3.78-28.04-.54-41.25,5.24-21.35,18.87-39.77,32.06-57.58,1.49-2.01,3.02-4.09,4.5-6.11,9.68-13.23,15.83-26.17,22.31-40.5,7.11-15.73,13.87-29.72,24.66-41.72,4.92-5.46,10.89-10.53,18.27-15.48,6.7-4.5,14.06-8.73,22.52-12.95,5.65-2.82,11.49-5.44,17.14-7.98,6.9-3.1,14.03-6.31,21.17-10,2.54-1.31,5.05-2.71,7.71-4.2,5.62-3.13,11.43-6.37,17.81-8.92,22.68-9.06,42.86-24.14,60.67-37.45,5.92-4.42,11.51-8.6,16.97-12.41,4.05-2.83,7.75-5.77,11.32-8.62l.29-.23c4.16-3.32,7.55-6.23,10.34-8.9,4.87-4.67,13.69-7.56,23.01-7.56v-.11m0,0c-9,0-18.04,2.76-23.09,7.6-3.07,2.94-6.55,5.88-10.33,8.9-3.62,2.89-7.44,5.94-11.61,8.84-22.2,15.48-47.56,37.83-77.62,49.84-9.37,3.74-17.55,8.99-25.53,13.12-13.05,6.75-25.83,11.77-38.31,17.98-7.62,3.8-15.25,8.06-22.53,12.95-6.64,4.46-12.87,9.48-18.29,15.5-11.13,12.38-18.16,27.33-24.68,41.75-6.13,13.56-12.39,26.93-22.3,40.48-14.15,19.33-30.72,39.86-36.58,63.73-6.8,27.74,2.17,57.62,18.2,74.31,13.73,14.3,33.43,18.87,55.59,18.87,14.19,0,29.4-1.87,44.67-4.26,23.92-3.74,49.98-8.02,72.13-20.73,16.29-9.35,25.18-26.32,30.14-41.05,5.01-14.91,7.16-29.52,14-44.81,8.5-18.98,24.02-36.92,40.44-52.02,17.28-15.89,35.58-29.45,51.54-44.35,25.54-23.84,45.42-50.92,51.31-79.71,6.35-31.04-6.09-63.6-38.94-79.93-7.02-3.5-15.18-5.84-23.65-6.75-1.51-.16-3.04-.24-4.58-.24h0Z"/>
      </g>
      <path class="cls-19" d="M710.94,562.41c25.53-19.15,37.36-39.54,56.03-59.31,15.73-16.65,33.9-32.48,53.99-47.43,34.15-25.41,80.16-27.98,102.75-17,64.43,31.3-9.03,108.41-97.38,161.89-41.69,25.23-100.84,61.11-124.81,37.9-13.73-13.3-16.12-56.89,9.41-76.04Z"/>
    </g>
    <g>
      <path class="cls-42" d="M1527.19,136.96c12.82-56.9,64.57-95.18,112.64-128.21,67.54-46.42,135.09-92.84,202.63-139.26,25.05-17.22,52.26-35.13,82.66-34.79,33.2,.37,62.84,23.3,80.33,51.52,17.49,28.22,25.02,61.31,32.26,93.7,12.97,57.98,26.02,117.01,21.37,176.24-4.65,59.23-29.75,119.77-78.88,153.18-40.34,27.44-93.54,34.86-127.96,69.43-42.97,43.16-41.85,112.08-63.49,169.01-29.89,78.63-110.24,135.3-194.34,137.07-84.1,1.77-166.76-51.47-199.93-128.78-30.37-70.77-21.82-172.11,43.62-219.47,28.2-20.41,55.91-22.59,73.98-56.77,23.65-44.73,4.46-95.66,15.1-142.88Z"/>
      <g>
        <path class="cls-42" d="M1976.57-69.53c16.05,22.01,22.92,47.91,28.11,73.81,9.17,45.79,16,93,9.26,140.21-6.82,47.28-29.59,94.77-67.03,122.03-33.36,24.28-75.36,34.63-103.95,64.7-35.54,37.31-39.44,93.35-59.7,140.88-25.63,60.12-86.96,104.81-152.48,107.26-65.72,2.55-128.9-37.53-157.8-95.36-12.05-24.12-18.66-53.43-16.63-82.41,2.16-30.53,12.92-60.25,32.73-82.69,4.49-5.07,9.45-9.76,14.88-14.01,22.25-17.25,44.29-20.78,59.26-48.25,19.8-36.23,7.76-77,18.31-114.9,12.55-45.51,54.59-76.95,94-104.36,54.17-37.67,108.59-75.17,162.94-112.59,1.1-.76,2.21-1.52,3.31-2.28,20.53-14.12,42.86-28.79,67.62-29.45,27.23-.8,51.56,15.99,67.17,37.39Z"/>
        <path class="cls-22" d="M1976.57-69.53c16.05,22.01,22.92,47.91,28.11,73.81,9.17,45.79,16,93,9.26,140.21-6.82,47.28-29.59,94.77-67.03,122.03-33.36,24.28-75.36,34.63-103.95,64.7-35.54,37.31-39.44,93.35-59.7,140.88-25.63,60.12-86.96,104.81-152.48,107.26-65.72,2.55-128.9-37.53-157.8-95.36-12.05-24.12-18.66-53.43-16.63-82.41,2.16-30.53,12.92-60.25,32.73-82.69,4.49-5.07,9.45-9.76,14.88-14.01,22.25-17.25,44.29-20.78,59.26-48.25,19.8-36.23,7.76-77,18.31-114.9,12.55-45.51,54.59-76.95,94-104.36,54.17-37.67,108.59-75.17,162.94-112.59,1.1-.76,2.21-1.52,3.31-2.28,20.53-14.12,42.86-28.79,67.62-29.45,27.23-.8,51.56,15.99,67.17,37.39Z"/>
      </g>
      <g>
        <path class="cls-42" d="M1947.68-25.3c14.72,15.82,20.84,34.51,23.96,53.92,5.4,33.59,5.98,68.98-2.85,104.17-8.99,35.33-29.3,70.03-55.18,90.88s-57.18,34.41-79.94,59.98c-28.12,31.47-36.84,74.54-55.92,112.76-20.83,41.73-63.68,74.32-110.62,77.46-47.34,3.33-91.56-23.59-115.66-61.94-11.04-17.57-18.27-39.52-17.21-62.09,1.15-23.6,9.6-46.91,24.5-65.21,3.35-4.09,7.02-7.94,11.05-11.45,16.24-14.16,32.68-18.97,44.54-39.73,15.94-27.73,11.14-58.31,21.52-86.91,12.38-34.1,44.61-58.72,75.37-80.5,42.14-29.83,84.79-59.35,127.28-88.69,.86-.6,1.73-1.19,2.6-1.79,16-11.03,33.45-22.4,52.58-24.11,21.26-1.9,40.42,8.65,54,23.26Z"/>
        <path class="cls-23" d="M1947.68-25.3c14.72,15.82,20.84,34.51,23.96,53.92,5.4,33.59,5.98,68.98-2.85,104.17-8.99,35.33-29.3,70.03-55.18,90.88s-57.18,34.41-79.94,59.98c-28.12,31.47-36.84,74.54-55.92,112.76-20.83,41.73-63.68,74.32-110.62,77.46-47.34,3.33-91.56-23.59-115.66-61.94-11.04-17.57-18.27-39.52-17.21-62.09,1.15-23.6,9.6-46.91,24.5-65.21,3.35-4.09,7.02-7.94,11.05-11.45,16.24-14.16,32.68-18.97,44.54-39.73,15.94-27.73,11.14-58.31,21.52-86.91,12.38-34.1,44.61-58.72,75.37-80.5,42.14-29.83,84.79-59.35,127.28-88.69,.86-.6,1.73-1.19,2.6-1.79,16-11.03,33.45-22.4,52.58-24.11,21.26-1.9,40.42,8.65,54,23.26Z"/>
      </g>
      <g>
        <path class="cls-42" d="M1918.79,18.94c13.63,9.54,18.78,21.1,19.81,34.03,1.69,21.36-3.99,45-14.96,68.14s-28.73,45.73-43.33,59.72c-19.31,18.51-38.99,34.18-55.93,55.25-20.69,25.63-33.72,55.76-52.13,84.64-15.07,23.64-40.41,43.73-68.76,47.66s-55.5-9.36-73.53-28.53c-10.44-11.1-17.87-25.62-17.78-41.77,.13-16.67,6.25-33.6,16.26-47.72,2.21-3.12,4.61-6.1,7.22-8.9,10.28-11,21.04-17.17,29.81-31.21,12.04-19.25,14.44-39.63,24.73-58.92,12.12-22.7,34.63-40.48,56.73-56.65,30.11-22,60.98-43.53,91.61-64.8,.62-.43,1.25-.87,1.88-1.3,11.47-7.93,24.06-16.06,37.54-18.77,15.3-3.07,29.52,1.2,40.84,9.12Z"/>
        <path class="cls-29" d="M1918.79,18.94c13.63,9.54,18.78,21.1,19.81,34.03,1.69,21.36-3.99,45-14.96,68.14s-28.73,45.73-43.33,59.72c-19.31,18.51-38.99,34.18-55.93,55.25-20.69,25.63-33.72,55.76-52.13,84.64-15.07,23.64-40.41,43.73-68.76,47.66s-55.5-9.36-73.53-28.53c-10.44-11.1-17.87-25.62-17.78-41.77,.13-16.67,6.25-33.6,16.26-47.72,2.21-3.12,4.61-6.1,7.22-8.9,10.28-11,21.04-17.17,29.81-31.21,12.04-19.25,14.44-39.63,24.73-58.92,12.12-22.7,34.63-40.48,56.73-56.65,30.11-22,60.98-43.53,91.61-64.8,.62-.43,1.25-.87,1.88-1.3,11.47-7.93,24.06-16.06,37.54-18.77,15.3-3.07,29.52,1.2,40.84,9.12Z"/>
      </g>
      <path class="cls-24" d="M1766.73,245.03c-16.06,14.01-39.44,27.47-58.31,22.74-11.17-2.8-17.48-11.71-18.35-21.45-.88-9.75,2.96-20.23,8.02-30.24,26.61-52.58,84.94-94.64,140.48-133.66,15.37-10.8,34.65-22.58,51.33-19.25,49.6,9.92-31.95,57.76-42.9,74.82-23.85,37.16-43.24,74.73-80.27,107.04Z"/>
    </g>
    <g>
      <path class="cls-26" d="M795.04-433.61c87.28,51.55,182.39,100.11,237.15,185.41,51.54,80.28,58.05,187.53,16.61,273.46-41.44,85.93-129.42,147.61-224.33,157.26-80.44,8.18-160.05-18.47-240.68-24.45-80.63-5.99-174.46,17.66-209.08,90.72-26.21,55.31-10.13,120.27,4.2,179.77,14.79,61.39,27.3,124.38,22.03,187.31-5.27,62.92-30.43,126.56-79.54,166.25-80.33,64.94-206.67,46.68-284.31-21.46-77.64-68.14-113-173.7-122.18-276.59-9.18-102.89,4.46-206.27,7.96-309.51,5.75-169.54-16.09-339.98-64.39-502.59-21.03-70.8-47.12-140.44-59.54-213.25-12.42-72.81-10.18-150.71,23.36-216.52,52.11-102.26,167.46-155.02,278.33-184.71,92.74-24.84,192.94-38.55,283.55-6.85,119.9,41.95,178.37,150.57,201.1,268.23,22.81,118.06,109.06,188.05,209.76,247.53Z"/>
      <path class="cls-25" d="M-138.95-710.62c49.16-87.48,148.76-134.15,246.79-159.36,82.04-21.07,170.59-32.42,250.84-4.11,106.03,37.36,156.5,133.34,179.72,236.18,23.69,104.92,107.02,162.25,200.33,214.53,79.07,44.31,164.54,87.76,214.62,163.38,47.24,71.22,54.45,166.54,19.09,244.09-35.58,78.04-113.59,135.34-198.82,146-11.58,1.45-23.17,2.09-34.75,2.12-60.66,.21-121.3-16.08-182.67-19.93-35.9-2.24-74.62,1.66-108.61,13.8-35.19,12.58-65.32,34.03-82.03,66.66-24.9,48.51-12.8,105.39-2.23,157.43,10.9,53.7,19.82,108.76,13.17,163.75-6.54,55-30.5,110.61-75.4,145.17-73.47,56.52-187.3,40.14-257.89-21.1-69.08-59.92-100.8-153.07-109.7-243.79-8.9-90.71,2.23-181.95,4.6-273.13,3.88-149.76-16.1-300.51-58.83-444.56-19.46-65.98-40.82-130.76-49.04-196.78-8.17-66.06-.77-134.12,30.83-190.36Z"/>
      <path class="cls-18" d="M-100.2-663.45c46.1-72.54,130.05-113.28,215.26-134.01,71.34-17.3,148.25-26.28,218.13-1.38,92.15,32.77,134.77,116.2,158.35,204.14,24.66,91.97,104.91,136.46,190.9,181.54,70.81,37.12,146.7,75.41,192.09,141.36,42.94,62.16,50.85,145.58,21.58,214.71-29.71,70.16-97.76,123.08-173.32,134.75-10.27,1.58-20.55,2.45-30.85,2.77-53.96,1.74-108.28-11.26-163.32-13.92-32.21-1.55-66.88,2.05-97.49,12.65-31.63,10.97-58.92,29.49-74.71,57.54-23.58,41.72-15.46,90.5-8.66,135.1,7.02,46.01,12.23,93.11,4.31,140.2-7.91,47.06-30.58,94.67-71.27,124.08-66.6,48.1-167.91,33.58-231.48-20.74-60.52-51.71-88.61-132.44-97.23-210.98-8.63-78.54,0-157.62,1.23-236.76,2-129.97-16.12-261.05-53.27-386.54-17.88-61.16-34.53-121.07-38.55-180.3-3.93-59.32,8.51-117.32,38.29-164.2Z"/>
      <path class="cls-4" d="M-61.45-616.28c42.78-57.4,111.34-92.42,183.73-108.66,60.64-13.53,125.91-20.15,185.42,1.36,78.28,28.18,113.28,99.15,136.98,172.09,25.76,79.29,102.71,110.71,181.46,148.55,62.45,30.01,128.85,63.07,169.56,119.33,38.64,53.1,47.28,124.64,24.06,185.34-23.83,62.3-81.93,110.82-147.81,123.49-8.95,1.71-17.93,2.8-26.95,3.42-47.27,3.26-95.25-6.44-143.97-7.92-28.53-.86-59.14,2.44-86.37,11.49-28.06,9.36-52.52,24.95-67.4,48.43-22.27,34.92-18.13,75.61-15.09,112.76,3.14,38.32,4.7,77.47-4.54,116.64s-30.65,78.72-67.13,102.99c-59.73,39.69-148.52,27.03-205.07-20.38C3.52,349.13-20.96,280.84-29.31,214.48c-8.35-66.36-2.23-133.3-2.13-200.38,.13-110.19-16.43-221.49-47.71-328.51-16.46-56.3-28.23-111.39-28.06-163.83,.32-52.57,17.56-100.19,45.76-138.03Z"/>
      <path class="cls-6" d="M-22.7-569.1c30.78-48.34,92.63-71.55,152.2-83.31,49.94-9.76,103.57-14.01,152.71,4.09,64.41,23.59,92.2,82.2,115.61,140.05,27.1,66.96,100.39,85.03,172.03,115.56,53.99,23.01,111,50.72,147.03,97.31,34.34,44.04,43.73,103.74,26.54,155.97-17.93,54.48-66.1,98.56-122.3,112.23-7.63,1.84-15.31,3.16-23.04,4.06-40.57,4.79-82.22-1.61-124.62-1.91-24.84-.16-51.41,2.84-75.24,10.34-24.5,7.76-46.08,20.44-60.08,39.31-20.9,28.17-20.8,60.73-21.52,90.42-.75,30.63-2.83,61.81-13.4,93.09s-30.72,62.78-62.99,81.9c-52.86,31.27-129.1,20.46-178.65-20.01C18.26,234.61-2.64,178.8-10.71,124.62-18.79,70.43-15.17,15.64-16.21-39.39c-1.74-90.41-16.5-182.01-42.16-270.49-14.93-51.47-21.94-101.7-17.57-147.36,4.57-45.83,21.41-87.86,53.23-111.87Z"/>
      <path class="cls-2" d="M16.05-521.93c25.45-34.86,73.93-50.68,120.67-57.96,39.24-5.99,81.23-7.87,120,6.82,50.53,19,71.82,65.29,94.23,108,28.91,55.09,97.9,59.49,162.6,82.57,45.39,16.2,93.06,38.46,124.5,75.28s40.24,82.89,29.03,126.6c-11.98,46.71-50.27,86.3-96.8,100.97-6.31,1.98-12.69,3.52-19.14,4.71-33.88,6.31-69.19,3.21-105.26,4.09-21.15,.53-43.67,3.23-64.12,9.19-20.93,6.15-39.67,15.91-52.76,30.2-19.58,21.39-23.47,45.84-27.95,68.08-4.63,22.95-10.33,46.14-22.25,69.53s-30.79,46.83-58.86,60.81c-46,22.86-109.65,13.88-152.24-19.65C33.05,120.05,15.67,76.76,7.88,34.75,.08-7.26,1.2-49.9-.97-92.88c-3.61-70.63-16.53-142.55-36.6-212.46-13.39-46.64-15.74-92.04-7.07-130.88,8.72-39.1,29.3-72.15,60.69-85.71Z"/>
      <path class="cls-7" d="M54.8-474.76c20.11-21.38,55.21-29.9,89.14-32.61,28.53-2.28,58.87-1.68,87.29,9.56,36.63,14.49,58.55,44.77,72.86,75.96,39.7,36.51,95.2,34.26,153.16,49.58,36.62,9.68,75.22,26.12,101.97,53.26,25.65,26.01,36.85,62.1,31.51,97.23-5.93,39.01-34.44,74.04-71.29,89.71-4.99,2.11-10.07,3.88-15.23,5.35-27.18,7.84-56.16,8.03-85.91,10.1-17.47,1.23-35.94,3.62-53,8.04-17.37,4.54-33.28,11.37-45.44,21.09-18.28,14.6-26.13,30.96-34.38,45.74-8.51,15.26-17.79,30.46-31.11,45.98s-30.87,30.89-54.72,39.72c-39.13,14.44-90.14,7.24-125.83-19.29C47.93,5.4,33.99-25.28,26.48-55.11c-7.53-29.83-8.91-60.33-12.22-91.26-5.49-50.85-16.51-103.09-31.04-154.43-11.83-41.81-9.43-82.36,3.42-114.41s37.2-56.44,68.16-59.55Z"/>
    </g>
    <g>
      <path class="cls-42" d="M1417.28,1109.86c-105.55-87.4-101.86-320.16-171.92-341.64-408.22-82.13,111.89,582.06-467.36,692.43-579.25,110.36-204.72,345.05-132.02,444.85,106.59,189.46,280.77,305.79,434,309.1s285.49-106.39,308.25-368.99c-6.1-92.4-12.19-185.94-1.01-277.96,.99-152.69,120.16-316.11,30.06-457.81Z"/>
      <g>
        <path class="cls-42" d="M1244.95,885.84c-144.53-36.29-160.91,46.32-163.47,160.87-2.68,111.26,12.03,256.75-73.19,343.68-44.51,45.4-111.59,85.73-210.9,107.75-493.99,109.57-164.25,303.78-100.44,398.44,106.61,158.15,249.89,264.32,385.93,264.94,135.23,1.01,252.38-96.12,275.13-324.93-1.64-83.32,1.18-167.86,7.41-252.09,9.84-133.01,104.47-275.9,27.44-399.69-90.29-77.12-87.3-278.7-147.93-298.98Z"/>
        <path class="cls-34" d="M1244.95,885.84c-144.53-36.29-160.91,46.32-163.47,160.87-2.68,111.26,12.03,256.75-73.19,343.68-44.51,45.4-111.59,85.73-210.9,107.75-493.99,109.57-164.25,303.78-100.44,398.44,106.61,158.15,249.89,264.32,385.93,264.94,135.23,1.01,252.38-96.12,275.13-324.93-1.64-83.32,1.18-167.86,7.41-252.09,9.84-133.01,104.47-275.9,27.44-399.69-90.29-77.12-87.3-278.7-147.93-298.98Z"/>
      </g>
      <g>
        <path class="cls-42" d="M1244.54,1003.45c-123.23-39.22-143.36,36.22-153.1,139.52-9.84,100.56-2.72,235.9-84.66,299.37-45.76,35.44-106.98,71.24-190,93.29-408.25,108.41-129.85,266.6-68.85,352.03,95.37,133.56,219,222.47,337.87,220.78,117.23-1.67,219.26-85.84,242.02-280.87,2.81-74.24,9.24-150.26,15.83-226.22,9.86-113.64,88.79-235.7,24.82-341.58-75.04-66.83-72.74-237.25-123.93-256.32Z"/>
        <path class="cls-36" d="M1244.54,1003.45c-123.23-39.22-143.36,36.22-153.1,139.52-9.84,100.56-2.72,235.9-84.66,299.37-45.76,35.44-106.98,71.24-190,93.29-408.25,108.41-129.85,266.6-68.85,352.03,95.37,133.56,219,222.47,337.87,220.78,117.23-1.67,219.26-85.84,242.02-280.87,2.81-74.24,9.24-150.26,15.83-226.22,9.86-113.64,88.79-235.7,24.82-341.58-75.04-66.83-72.74-237.25-123.93-256.32Z"/>
      </g>
    </g>
    <g>
      <path class="cls-42" d="M228.58,936.99c24.2,0,44.84,18.52,63.12,56.62,15.68,32.68,26.71,73.95,35.58,107.11,5.68,21.26,10.59,39.62,15.34,50.54,11.45,26.32,30.51,49.59,58.28,71.13,24.68,19.15,53.72,35.14,81.81,50.61,32.65,17.98,66.4,36.57,92.95,60.03,14.25,12.59,25.38,25.57,34.02,39.67,9.68,15.8,16.02,32.62,19.39,51.4,7.32,40.87-6.33,81.91-19.53,121.59-3.16,9.52-6.44,19.35-9.35,28.99-21.56,71.38-24.02,145.16-7.31,219.29,14.01,62.14,41.26,124.09,81,184.12,40.16,60.67,84.16,105.79,114,132.96,34.27,31.2,68.63,55.84,91.92,65.92,32.38,14,67.9,25.64,102.25,36.9,47.97,15.72,97.58,31.97,139.64,54.96,22.62,12.36,41.3,25.62,57.12,40.54,17.74,16.74,31.45,35.12,41.91,56.19,25.71,51.8,24.28,113.87-4.01,174.76-12.87,27.69-31.26,54.56-53.19,77.69-22.03,23.23-47.92,43-74.87,57.16-39.1,20.54-82.8,34.65-133.59,43.13-40.96,6.84-86.32,10.02-142.76,10.02-30.28,0-60.89-.9-89.65-1.83l-245.74-7.9-237.84-7.65c-28.18-.91-55.63-2.09-81.72-6.61-30.04-5.2-54.49-14.25-74.73-27.64-20.82-13.78-37.87-32.33-50.67-55.13-11.42-20.34-19.83-44.74-25.01-72.53-4.51-24.2-6.67-50.86-6.63-81.49,.04-24.34,1.45-50.36,4.43-81.87l123.64-1305.66c3.93-41.49,9.62-80.92,35.79-107.26,23.58-23.72,45.25-35.75,64.4-35.75h0m0-1c-18.27,0-39.72,10.51-65.11,36.05-27.3,27.47-32.43,69.32-36.08,107.87C86.18,1515.13,44.96,1950.35,3.75,2385.57c-10.01,105.69-10.21,233.35,78.32,291.96,45.28,29.97,102.7,32.68,156.97,34.42,161.19,5.18,322.39,10.37,483.58,15.55,29.65,.95,59.67,1.83,89.68,1.83,96.28,0,192.57-9,276.82-53.26,110.51-58.06,187.99-199.12,132.5-310.94-59.4-119.7-218.76-136.03-341.42-189.07-82.88-35.84-372.06-293.16-279.06-601.07,14.99-49.61,38.03-100.03,28.9-151.05-26.13-145.96-231.47-146.53-286.5-273.06-19.49-44.81-41.45-214.89-114.97-214.88h0Z"/>
      <g>
        <path class="cls-5" d="M157.18,1042.76c121.03-122.55,150.5,110.68,175.37,163.89,4.6,9.83,10,18.96,16.27,27.41,69.49,93.79,233.42,108.43,255.41,236.93,8.38,48.96-13.4,97.45-27.45,145.14-23.71,80.4-20.52,157.18-.87,226.54,34.53,123.15,118.97,222.09,188.91,283.22,35,30.6,66.25,51.5,86.01,59.98,118.05,50.82,269.64,68.82,325.82,183.85,52.48,107.45-21.16,242.42-127.89,298.5-106.04,55.71-231.89,53.75-351.72,49.83-154.72-5.05-309.49-11.11-463.56-17.86-51.93-2.31-106.72-5.6-150.01-34.53C-.64,2609.62-1.41,2488.68,7.18,2388.22c35.39-413.65,73.71-829.02,115.31-1242.84,3.68-36.65,8.78-76.38,34.69-102.63Z"/>
        <path class="cls-42" d="M220.4,1008.56c22.8,0,42.49,16.9,60.21,51.65,15.23,29.88,26.29,67.92,35.18,98.48,5.9,20.29,11,37.82,15.92,48.35,4.61,9.87,10.12,19.14,16.37,27.57,28.31,38.21,72.75,63.64,115.72,88.22,31.22,17.86,63.49,36.32,88.81,59.39,13.6,12.39,24.19,25.1,32.4,38.87,9.2,15.43,15.18,31.8,18.31,50.05,6.69,39.06-6.11,78.35-18.48,116.34-3.03,9.31-6.17,18.94-8.95,28.38-22.07,74.83-22.36,151.23-.87,227.06,38.24,136.35,134.95,236.26,189.2,283.68,32.53,28.43,64.77,50.91,86.25,60.14,30.09,12.95,62.9,23.96,94.62,34.6,46.47,15.59,94.52,31.7,135.21,54.3,21.88,12.15,39.94,25.14,55.2,39.72,17.12,16.36,30.31,34.27,40.32,54.78,24.36,49.87,22.85,109.43-4.25,167.71-25.34,54.49-70.25,101.71-123.23,129.55-37.8,19.86-80.03,33.51-129.12,41.72-39.66,6.63-83.5,9.72-138,9.72-29.24,0-58.76-.88-84.14-1.71-147.52-4.82-299.15-10.66-463.55-17.86-46.82-2.08-105.08-4.67-149.53-34.38-19.79-13.19-36.05-30.87-48.32-52.56-10.95-19.35-19.09-42.53-24.19-68.92-10.22-52.86-7.17-110.66-3.37-155.12,36.51-426.79,75.31-844.94,115.31-1242.83,3.96-39.42,9.58-76.89,34.43-102.06,22.84-23.13,43.88-34.85,62.54-34.85h0m0-.94c-17.77,0-38.6,10.21-63.21,35.13-25.91,26.24-31.01,65.98-34.69,102.63C80.89,1559.2,42.57,1974.57,7.18,2388.22c-8.6,100.45-7.82,221.4,76.3,277.46,43.29,28.93,98.08,32.23,150.01,34.53,154.07,6.75,308.84,12.81,463.56,17.86,27.84,.91,56,1.71,84.17,1.71,93.07,0,186.15-8.78,267.55-51.55,106.73-56.08,180.37-191.05,127.89-298.5-56.18-115.04-207.77-133.03-325.82-183.85-19.75-8.48-51-29.39-86.01-59.98-69.94-61.13-154.38-160.08-188.91-283.22-19.65-69.36-22.84-146.15,.87-226.54,14.06-47.7,35.83-96.19,27.45-145.14-21.99-128.5-185.92-143.14-255.41-236.93-6.27-8.46-11.67-17.58-16.27-27.41-19.81-42.39-42.55-199.02-112.16-199.02h0Z"/>
      </g>
      <g>
        <path class="cls-31" d="M150.9,1113.47c114.51-116.78,145.23,98.45,170.67,148.95,4.64,9.2,9.88,17.85,15.99,25.87,67.77,88.92,220.86,106.64,240.87,229.76,7.63,46.89-12.87,93.46-26,139.24-22.14,77.11-18.54,150.68,1.22,216.68,34.91,116.62,116.93,207.74,184.94,265.23,33.7,28.48,63.63,48.31,82.89,56.52,113.45,48.6,257.26,68.27,310.23,178.64,49.48,103.08-20.33,231.96-123.28,286.06-101.56,53.36-222.05,52.05-336.94,48.23-148.25-4.92-296.6-11.85-443.54-20.16-49.59-2.87-101.75-6.76-143.05-34.65-79.71-53.51-81.46-167.75-74.28-262.96,29.56-392.09,64.99-787.6,106.98-1180.02,3.72-34.75,8.79-72.37,33.3-97.39Z"/>
        <path class="cls-42" d="M212.27,1080.1c21.42,0,40.15,15.31,57.28,46.79,14.75,27.12,25.83,61.95,34.73,89.94,6.12,19.24,11.4,35.87,16.5,45.99,4.91,9.76,10.17,18.26,16.08,26.01,27.07,35.51,68.16,60,107.9,83.67,29.81,17.76,60.64,36.13,84.76,58.84,12.95,12.2,23.03,24.67,30.8,38.12,8.72,15.08,14.35,31.02,17.23,48.74,6.06,37.24-5.88,74.77-17.43,111.07-2.9,9.12-5.9,18.55-8.55,27.78-10.67,37.16-15.76,75.1-15.14,112.76,.58,34.96,6.08,70.09,16.36,104.41,15.88,53.06,42.87,105.23,80.19,155.06,29.57,39.47,64.9,76.68,105.02,110.59,32.18,27.2,62.48,47.85,83.11,56.65,27.72,11.87,57.74,22.19,86.78,32.17,45.01,15.47,91.55,31.46,130.91,53.68,21.17,11.95,38.61,24.69,53.33,38.94,16.51,15.99,29.19,33.46,38.77,53.42,23.01,47.94,21.42,104.99-4.49,160.65-24.28,52.18-67.44,97.47-118.41,124.25-36.49,19.17-77.25,32.36-124.62,40.3-38.35,6.43-80.67,9.43-133.21,9.43-26.78,0-53.64-.77-78.68-1.6-139.71-4.63-288.93-11.42-443.52-20.16-44.6-2.58-100.11-5.8-142.61-34.5-18.76-12.59-34.23-29.41-45.97-49.98-10.48-18.35-18.35-40.33-23.38-65.31-10.07-49.97-7.72-104.74-4.54-146.88,30.53-404.98,66.53-801.98,106.98-1179.99,4-37.35,9.53-72.87,33.06-96.87,22.11-22.55,42.55-33.98,60.75-33.99h0m0-.88c-17.29,0-37.52,9.92-61.37,34.25-24.52,25.01-29.58,62.63-33.3,97.39-41.99,392.42-77.42,787.93-106.98,1180.02-7.18,95.21-5.44,209.45,74.28,262.96,41.3,27.89,93.46,31.78,143.05,34.65,146.95,8.31,295.29,15.25,443.54,20.16,26.05,.86,52.37,1.6,78.71,1.6,89.84,0,179.69-8.57,258.23-49.83,102.95-54.09,172.75-182.97,123.28-286.06-52.97-110.37-196.78-130.04-310.23-178.64-19.25-8.21-49.19-28.03-82.89-56.52-68.01-57.49-150.03-148.62-184.94-265.23-19.76-66-23.36-139.57-1.22-216.68,13.13-45.78,33.63-92.34,26-139.24-20.01-123.12-173.1-140.84-240.87-229.76-6.12-8.02-11.36-16.67-15.99-25.87-20.14-39.98-43.58-183.21-109.3-183.2h0Z"/>
      </g>
    </g>
    <g>
      <g>
        <path class="cls-42" d="M1785.9,767.1c-71.14-29.64-120.97-93.39-176.63-146.69-55.66-53.3-130.49-100.23-205.53-82.66-89.62,20.98-135.66,128.09-123.22,219.29,12.44,91.2,66.77,170.25,115.95,248.04,8.2,12.97,16.33,26.17,24.2,39.61,7.88,13.46,15.53,27.18,22.48,40.95,6.96,13.77,13.45,27.81,19.19,42.06,2.87,7.12,5.56,14.3,8.03,21.52,28.63,76.1,16.68,158.6-2.33,233.5-.83,8.83-2.09,17.52-3.68,26.27-7.96,43.75-25.04,89.47-5.38,129.09,3.22,7.61,7.16,15.09,11.95,22.19,27.43,40.69,78.02,60.91,127.03,63.3,49.01,2.39,97.34-10.59,144.51-24.08,77.67-22.21,163.35-53.12,197.96-126.11,27.31-57.59,14.35-126.24-8.64-185.68-22.99-59.45-55.58-115.84-67.72-178.41-2.51-12.96-4-25.7-4.62-38.11-.37-12.75,.3-24.72,1.66-36.62,1.35-11.9,3.39-23.73,5.73-36.22,3.83-18.35,9.66-35.76,16.83-52.95,7.16-17.2,15.67-34.13,25.19-50.87,53.77-94.49-52.37-98-122.96-127.41Z"/>
        <path class="cls-50" d="M1436.47,535c29.26,0,60.2,8.75,91.98,26.01,26.58,14.44,53.54,34.67,80.12,60.12,12.62,12.09,25.16,24.94,37.29,37.37,41.52,42.55,84.46,86.54,139.65,109.53,14.73,6.14,31.14,11.19,47.01,16.08,39.45,12.15,76.71,23.62,87.15,49.97,6.2,15.63,2.37,35.24-11.68,59.94-10.07,17.7-18.33,34.38-25.25,50.98-7.8,18.72-13.32,36.1-16.89,53.15-2.03,10.78-4.29,23.52-5.75,36.29-1.46,12.87-2.01,24.89-1.66,36.78,.63,12.79,2.19,25.66,4.64,38.25,8.27,42.61,26.27,82.99,43.69,122.04,8.22,18.43,16.72,37.49,24.09,56.54,28.71,74.25,31.63,136.46,8.66,184.89-15.59,32.88-42.55,59.58-82.41,81.66-36.43,20.17-78.54,33.52-114.92,43.92-46.55,13.31-88.64,24.32-132.35,24.32-3.98,0-7.96-.1-11.84-.29-25.3-1.23-49.93-7.18-71.23-17.2-23.54-11.07-42.05-26.44-55.02-45.67-4.53-6.73-8.52-14.14-11.86-22.02v-.03s-.03-.03-.03-.03c-15.63-31.5-7.66-67.54,.04-102.4,1.89-8.57,3.85-17.43,5.42-26.07,1.68-9.22,2.88-17.82,3.68-26.28,16.94-66.78,32.49-153.7,2.29-234-2.41-7.05-5.12-14.31-8.05-21.57-5.42-13.43-11.89-27.61-19.23-42.13-6.34-12.55-13.7-25.96-22.51-41.01-7.06-12.07-14.99-25.04-24.22-39.64-3.96-6.26-8.02-12.65-11.95-18.82-45.45-71.38-92.45-145.19-103.85-228.83-6.21-45.57,2.26-94.92,23.24-135.38,10.9-21.03,24.64-38.77,40.84-52.73,17.34-14.94,36.98-25.06,58.38-30.07,10.56-2.47,21.5-3.72,32.52-3.72m0-1c-10.87,0-21.8,1.19-32.74,3.75-89.62,20.98-135.66,128.09-123.22,219.29,12.44,91.2,66.77,170.25,115.95,248.04,8.2,12.97,16.33,26.17,24.2,39.61,7.88,13.46,15.53,27.18,22.48,40.95,6.96,13.77,13.45,27.81,19.19,42.06,2.87,7.12,5.56,14.3,8.03,21.52,28.63,76.1,16.68,158.6-2.33,233.5-.83,8.83-2.09,17.52-3.68,26.27-7.96,43.75-25.04,89.47-5.38,129.09,3.22,7.61,7.16,15.09,11.95,22.19,27.43,40.69,78.02,60.91,127.03,63.3,3.97,.19,7.93,.29,11.89,.29,44.94,0,89.27-11.97,132.63-24.36,77.67-22.21,163.35-53.12,197.96-126.11,27.31-57.59,14.35-126.23-8.64-185.68-22.99-59.45-55.58-115.84-67.72-178.41-2.51-12.96-4-25.7-4.62-38.11-.37-12.75,.3-24.72,1.66-36.62,1.35-11.9,3.39-23.73,5.73-36.22,3.83-18.35,9.66-35.76,16.83-52.95,7.16-17.2,15.67-34.13,25.19-50.87,53.77-94.49-52.37-98-122.96-127.41-71.14-29.64-120.97-93.39-176.63-146.69-47.55-45.53-109.09-86.41-172.79-86.41h0Z"/>
      </g>
      <g>
        <path class="cls-42" d="M1618.82,655.42c-51.27-47.08-119.33-88.62-187.56-71.81-7.28,1.79-14.25,4.21-20.89,7.18-23.13,10.27-42.17,27.47-57.08,48.5-28.8,40.4-41.77,95.13-35.88,144.65,9.85,82.65,57.13,154.33,100.72,225.56,7.25,11.84,14.52,23.87,21.53,36.13,7.02,12.29,13.84,24.81,20.06,37.38,6.22,12.57,12.03,25.38,17.19,38.38,2.58,6.5,4.89,13.08,7.21,19.63,24.7,69.78,15.32,144.57-1.24,212.75-.69,8.03-1.75,15.94-3.12,23.89-6.83,39.77-21,80.87-3.68,117.19,3.33,6.99,7.02,13.98,11.63,20.55,9.25,13.16,21.12,23.99,34.62,32.57,25.15,15.88,55.75,23.68,85.61,24.78,44.58,1.64,88.51-9.98,131.38-22.41,70.57-20.45,148.28-48.86,179.95-115.23,25.12-52.58,13.94-115.17-6.36-169.54-20.3-54.35-49.33-105.99-60.03-163.22-2.22-11.84-3.63-23.49-4.03-34.85-.41-11.65,.34-22.6,1.59-33.49,1.25-10.89,2.99-21.73,5.24-33.13,3.32-16.82,8.76-32.73,15.23-48.47,6.47-15.76,14.14-31.28,22.72-46.62,48.42-86.11-47.45-89.78-110.97-117.85-64.84-28.65-112.39-85.26-163.84-132.51Z"/>
        <path class="cls-12" d="M1618.82,655.42c-51.27-47.08-119.33-88.62-187.56-71.81-7.28,1.79-14.25,4.21-20.89,7.18-23.13,10.27-42.17,27.47-57.08,48.5-28.8,40.4-41.77,95.13-35.88,144.65,9.85,82.65,57.13,154.33,100.72,225.56,7.25,11.84,14.52,23.87,21.53,36.13,7.02,12.29,13.84,24.81,20.06,37.38,6.22,12.57,12.03,25.38,17.19,38.38,2.58,6.5,4.89,13.08,7.21,19.63,24.7,69.78,15.32,144.57-1.24,212.75-.69,8.03-1.75,15.94-3.12,23.89-6.83,39.77-21,80.87-3.68,117.19,3.33,6.99,7.02,13.98,11.63,20.55,9.25,13.16,21.12,23.99,34.62,32.57,25.15,15.88,55.75,23.68,85.61,24.78,44.58,1.64,88.51-9.98,131.38-22.41,70.57-20.45,148.28-48.86,179.95-115.23,25.12-52.58,13.94-115.17-6.36-169.54-20.3-54.35-49.33-105.99-60.03-163.22-2.22-11.84-3.63-23.49-4.03-34.85-.41-11.65,.34-22.6,1.59-33.49,1.25-10.89,2.99-21.73,5.24-33.13,3.32-16.82,8.76-32.73,15.23-48.47,6.47-15.76,14.14-31.28,22.72-46.62,48.42-86.11-47.45-89.78-110.97-117.85-64.84-28.65-112.39-85.26-163.84-132.51Z"/>
        <path class="cls-53" d="M1462.9,580.71c26.27,0,54.12,7.67,82.78,22.78,23.81,12.56,48.22,30.26,72.54,52.6,11.67,10.71,23.35,22.13,34.66,33.16,38.92,38,79.16,77.29,129.43,99.51,13.54,5.98,28.66,10.9,43.27,15.65,35.17,11.43,68.39,22.23,77.75,46.21,5.59,14.33,2.17,32.23-10.48,54.73-9.08,16.23-16.52,31.51-22.76,46.72-7.46,18.14-12.31,33.6-15.28,48.64-2.32,11.78-4.04,22.64-5.25,33.2-1.45,12.67-1.96,23.35-1.6,33.62,.39,10.94,1.75,22.71,4.05,34.98,7.26,38.85,23.19,75.7,38.6,111.34,7.33,16.97,14.92,34.51,21.47,52.03,25.34,67.87,27.49,124.68,6.39,168.84-14.27,29.9-38.8,54.25-75.01,74.44-33.14,18.48-71.36,30.75-104.37,40.32-40.94,11.87-81.13,22.53-122.61,22.53-2.84,0-5.7-.05-8.49-.15-31.6-1.16-61.84-9.91-85.16-24.64-13.97-8.88-25.53-19.76-34.37-32.33-5.02-7.14-8.81-14.66-11.56-20.41-13.93-29.22-7.16-62.2-.62-94.1,1.52-7.41,3.09-15.07,4.38-22.56,1.44-8.38,2.46-16.2,3.12-23.9,9.67-39.84,14.94-74.47,16.1-105.88,1.47-39.73-3.41-74.83-14.9-107.31l-.33-.94c-2.18-6.15-4.43-12.51-6.89-18.72-4.85-12.24-10.65-25.17-17.22-38.45-5.64-11.4-12.21-23.64-20.08-37.42-7.32-12.8-15-25.46-21.54-36.15-3.13-5.11-6.27-10.22-9.42-15.34-40.34-65.55-82.06-133.33-91.17-209.86-2.9-24.39-1.2-50.47,4.91-75.43,6.2-25.3,16.85-49.02,30.81-68.6,15.8-22.29,34.88-38.51,56.71-48.2,6.67-2.98,13.64-5.38,20.74-7.12,10.19-2.51,20.76-3.78,31.43-3.78m0-.9c-10.5,0-21.07,1.2-31.64,3.81-7.28,1.79-14.25,4.21-20.89,7.18-23.13,10.27-42.17,27.47-57.08,48.5-28.8,40.4-41.77,95.13-35.88,144.65,9.85,82.65,57.13,154.33,100.72,225.56,7.25,11.84,14.52,23.87,21.53,36.13,7.02,12.29,13.84,24.81,20.06,37.38,6.22,12.57,12.03,25.39,17.19,38.38,2.58,6.5,4.89,13.08,7.21,19.63,24.7,69.78,15.32,144.57-1.24,212.75-.69,8.03-1.75,15.94-3.12,23.89-6.83,39.77-21,80.87-3.68,117.19,3.33,6.99,7.02,13.98,11.63,20.55,9.25,13.16,21.12,23.99,34.62,32.57,25.15,15.88,55.75,23.68,85.61,24.78,2.84,.1,5.68,.16,8.52,.16,41.66,0,82.72-10.92,122.86-22.56,70.57-20.45,148.28-48.86,179.95-115.23,25.12-52.58,13.94-115.17-6.36-169.54-20.3-54.35-49.33-105.99-60.02-163.22-2.22-11.84-3.63-23.49-4.03-34.85-.41-11.65,.34-22.6,1.59-33.49,1.25-10.89,2.99-21.73,5.24-33.13,3.32-16.82,8.76-32.73,15.23-48.47,6.47-15.76,14.14-31.28,22.72-46.62,48.42-86.11-47.45-89.78-110.97-117.85-64.84-28.65-112.39-85.26-163.84-132.51-43.32-39.79-98.64-75.62-155.92-75.62h0Z"/>
      </g>
      <g>
        <path class="cls-42" d="M1628.38,690.44c-46.86-40.86-108.16-77.02-169.59-60.96-6.56,1.71-12.82,3.99-18.81,6.73-20.79,9.52-37.8,25.32-51.33,44.44-26.27,36.69-38.67,85.78-34.34,130.19,7.25,74.11,47.49,138.4,85.49,203.08,6.3,10.72,12.7,21.57,18.85,32.65,6.16,11.11,12.16,22.43,17.63,33.8,5.48,11.37,10.61,22.96,15.18,34.71,2.28,5.87,4.33,11.82,6.4,17.74,21.93,63.04,13.97,130.55-.15,191.99-.54,7.23-1.42,14.35-2.56,21.51-5.71,35.8-18.14,72.84-1.99,105.29,3.22,6.47,6.87,12.88,11.32,18.9,8.9,12.08,20.16,22.03,32.97,29.82,23.85,14.5,52.59,20.94,80.46,21.58,40.15,.92,79.68-9.36,118.25-20.74,63.47-18.7,133.21-44.6,161.93-104.35,22.93-47.57,13.52-104.11-4.08-153.39-17.62-49.25-43.07-96.15-52.33-148.03-1.92-10.73-3.13-21.29-3.44-31.59s.38-20.48,1.53-30.36c1.14-9.88,2.73-19.71,4.75-30.04,2.99-15.25,7.86-29.69,13.64-43.99,5.77-14.32,12.57-28.44,20.24-42.37,42.86-77.84-42.54-81.61-98.97-108.29-58.56-27.69-103.8-77.13-151.04-118.33Z"/>
        <path class="cls-39" d="M1628.38,690.44c-46.86-40.86-108.16-77.02-169.59-60.96-6.56,1.71-12.82,3.99-18.81,6.73-20.79,9.52-37.8,25.32-51.33,44.44-26.27,36.69-38.67,85.78-34.34,130.19,7.25,74.11,47.49,138.4,85.49,203.08,6.3,10.72,12.7,21.57,18.85,32.65,6.16,11.11,12.16,22.43,17.63,33.8,5.48,11.37,10.61,22.96,15.18,34.71,2.28,5.87,4.33,11.82,6.4,17.74,21.93,63.04,13.97,130.55-.15,191.99-.54,7.23-1.42,14.35-2.56,21.51-5.71,35.8-18.14,72.84-1.99,105.29,3.22,6.47,6.87,12.88,11.32,18.9,8.9,12.08,20.16,22.03,32.97,29.82,23.85,14.5,52.59,20.94,80.46,21.58,40.15,.92,79.68-9.36,118.25-20.74,63.47-18.7,133.21-44.6,161.93-104.35,22.93-47.57,13.52-104.11-4.08-153.39-17.62-49.25-43.07-96.15-52.33-148.03-1.92-10.73-3.13-21.29-3.44-31.59s.38-20.48,1.53-30.36c1.14-9.88,2.73-19.71,4.75-30.04,2.99-15.25,7.86-29.69,13.64-43.99,5.77-14.32,12.57-28.44,20.24-42.37,42.86-77.84-42.54-81.61-98.97-108.29-58.56-27.69-103.8-77.13-151.04-118.33Z"/>
        <path class="cls-51" d="M1489.37,626.38c42.69,0,89.28,21.75,138.48,64.66,10.8,9.42,21.71,19.47,32.27,29.19,36.22,33.36,73.68,67.85,118.96,89.26,12.32,5.82,26.09,10.59,39.41,15.19,30.89,10.68,60.06,20.77,68.38,42.39,5.02,13.05,2.02,29.27-9.18,49.6-7.83,14.22-14.65,28.5-20.28,42.45-6.66,16.48-11,30.5-13.68,44.14-2.09,10.68-3.65,20.53-4.76,30.1-1.33,11.49-1.82,21.17-1.53,30.47,.31,9.93,1.47,20.6,3.46,31.7,6.26,35.09,20.12,68.4,33.52,100.61,6.45,15.51,13.12,31.54,18.85,47.55,21.96,61.49,23.35,112.89,4.12,152.78-12.95,26.93-35.06,48.92-67.61,67.22-29.85,16.78-64.18,27.98-93.83,36.71-34.06,10.05-73.69,20.76-113,20.76-1.67,0-3.36-.02-5.01-.06-30.43-.7-58.11-8.12-80.06-21.46-13.13-7.98-24.14-17.94-32.74-29.61-3.92-5.31-7.6-11.46-11.25-18.78-12.97-26.05-7.23-55.68-1.67-84.32,1.3-6.73,2.65-13.68,3.74-20.49,1.2-7.54,2.04-14.58,2.57-21.52,8.38-36.5,12.7-66.84,13.6-95.49,1.12-35.88-3.29-67.57-13.49-96.88l-.39-1.14c-1.9-5.47-3.87-11.12-6.01-16.63-4.35-11.19-9.32-22.56-15.2-34.77-4.94-10.25-10.71-21.32-17.65-33.84-5.78-10.4-11.83-20.71-17.69-30.67l-1.17-1.99c-2.26-3.85-4.54-7.7-6.81-11.56-35.29-59.82-71.77-121.68-78.58-191.19-4.4-45.13,8.38-93.6,34.2-129.65,14.46-20.44,31.62-35.3,51.01-44.18,6.1-2.79,12.39-5.04,18.68-6.69,9.83-2.57,20.05-3.87,30.39-3.87m0-.8c-10.15,0-20.37,1.23-30.59,3.9-6.56,1.71-12.82,3.99-18.81,6.73-20.79,9.52-37.8,25.32-51.33,44.44-26.27,36.69-38.67,85.78-34.34,130.19,7.25,74.11,47.49,138.4,85.49,203.08,6.3,10.72,12.7,21.57,18.85,32.65,6.16,11.11,12.16,22.43,17.63,33.8,5.48,11.37,10.61,22.96,15.18,34.71,2.28,5.87,4.33,11.82,6.4,17.74,21.93,63.04,13.97,130.55-.15,191.99-.54,7.23-1.42,14.35-2.56,21.51-5.71,35.8-18.14,72.84-1.99,105.29,3.22,6.47,6.87,12.88,11.32,18.9,8.9,12.08,20.16,22.03,32.97,29.82,23.85,14.5,52.59,20.94,80.46,21.58,1.68,.04,3.35,.06,5.03,.06,38.42,0,76.26-9.89,113.22-20.8,63.47-18.7,133.21-44.6,161.93-104.35,22.93-47.57,13.52-104.11-4.08-153.39-17.62-49.25-43.07-96.15-52.33-148.03-1.92-10.73-3.13-21.29-3.44-31.59-.32-10.55,.38-20.48,1.53-30.36,1.14-9.88,2.73-19.71,4.75-30.04,2.99-15.25,7.86-29.69,13.64-43.99,5.77-14.32,12.57-28.44,20.24-42.37,42.86-77.84-42.54-81.61-98.97-108.29-58.56-27.69-103.8-77.13-151.04-118.33-39.06-34.06-88.16-64.86-139.01-64.86h0Z"/>
      </g>
      <g>
        <path class="cls-42" d="M1637.93,725.45c-42.42-34.64-96.99-65.41-151.62-50.1-5.83,1.63-11.4,3.77-16.73,6.29-18.46,8.74-33.43,23.18-45.58,40.39-23.74,32.97-35.57,76.43-32.8,115.73,4.66,65.56,37.84,122.46,70.26,180.59,5.35,9.59,10.88,19.27,16.17,29.17,5.3,9.93,10.47,20.06,15.21,30.23,4.74,10.16,9.19,20.53,13.17,31.04,1.99,5.25,3.78,10.56,5.58,15.85,19.17,56.3,12.61,116.52,.94,171.24-.4,6.43-1.09,12.77-2,19.13-4.59,31.82-15.24,64.8-.3,93.39,3.11,5.95,6.73,11.77,11,17.26,8.55,10.99,19.22,20.05,31.31,27.06,22.58,13.09,49.46,16.98,75.31,18.38,35.66,1.93,70.85-8.75,105.12-19.07,56.37-16.95,118.14-40.34,143.92-93.47,20.75-42.55,13.1-93.05-1.81-137.25-14.93-44.15-36.81-86.3-44.63-132.84-1.62-9.62-2.63-19.09-2.86-28.33s.42-18.36,1.46-27.23c1.04-8.86,2.46-17.69,4.26-26.95,2.66-13.68,6.96-26.66,12.04-39.51,5.08-12.87,11.02-25.59,17.76-38.12,37.41-69.51-37.63-73.49-86.97-98.73-52.32-26.77-95.18-68.99-138.24-104.15Z"/>
        <path class="cls-16" d="M1637.93,725.45c-42.42-34.64-96.99-65.41-151.62-50.1-5.83,1.63-11.4,3.77-16.73,6.29-18.46,8.74-33.43,23.18-45.58,40.39-23.74,32.97-35.57,76.43-32.8,115.73,4.66,65.56,37.84,122.46,70.26,180.59,5.35,9.59,10.88,19.27,16.17,29.17,5.3,9.93,10.47,20.06,15.21,30.23,4.74,10.16,9.19,20.53,13.17,31.04,1.99,5.25,3.78,10.56,5.58,15.85,19.17,56.3,12.61,116.52,.94,171.24-.4,6.43-1.09,12.77-2,19.13-4.59,31.82-15.24,64.8-.3,93.39,3.11,5.95,6.73,11.77,11,17.26,8.55,10.99,19.22,20.05,31.31,27.06,22.58,13.09,49.46,16.98,75.31,18.38,35.66,1.93,70.85-8.75,105.12-19.07,56.37-16.95,118.14-40.34,143.92-93.47,20.75-42.55,13.1-93.05-1.81-137.25-14.93-44.15-36.81-86.3-44.63-132.84-1.62-9.62-2.63-19.09-2.86-28.33s.42-18.36,1.46-27.23c1.04-8.86,2.46-17.69,4.26-26.95,2.66-13.68,6.96-26.66,12.04-39.51,5.08-12.87,11.02-25.59,17.76-38.12,37.41-69.51-37.63-73.49-86.97-98.73-52.32-26.77-95.18-68.99-138.24-104.15Z"/>
        <path class="cls-48" d="M1515.91,672.02c20.28,0,41.92,5.51,64.33,16.36,18.25,8.84,37.51,21.5,57.25,37.62,10.11,8.26,20.44,17.1,30.43,25.65,33.35,28.54,67.84,58.06,107.93,78.58,11.04,5.65,23.43,10.26,35.4,14.72,26.7,9.94,51.92,19.33,59.2,38.63,4.43,11.76,1.84,26.3-7.92,44.43-6.78,12.6-12.77,25.45-17.8,38.19-5.86,14.82-9.7,27.41-12.08,39.64-1.87,9.58-3.26,18.42-4.27,27-1.21,10.31-1.67,18.99-1.47,27.32,.22,8.92,1.19,18.48,2.87,28.43,5.26,31.31,17.04,61.07,28.43,89.85,5.57,14.06,11.32,28.6,16.22,43.1,18.59,55.1,19.21,101.1,1.84,136.72-24.94,51.41-83.71,75.13-143.49,93.11l-.65,.19c-31.13,9.38-63.33,19.07-95.74,19.07-2.86,0-5.71-.08-8.49-.23-22.31-1.21-51-4.38-75-18.29-12.33-7.14-22.79-16.19-31.11-26.89-3.97-5.09-7.65-10.86-10.94-17.16-11.98-22.91-7.27-49.19-2.71-74.61,1.08-6.03,2.2-12.27,3.08-18.36,.96-6.7,1.62-12.96,2.01-19.14,6.95-32.62,10.48-59.66,11.09-85.1,.78-32.03-3.17-60.31-12.07-86.45l-.46-1.34c-1.62-4.78-3.3-9.72-5.13-14.53-3.77-9.98-8.09-20.14-13.19-31.09-4.23-9.08-9.21-18.98-15.22-30.26-3.85-7.2-7.88-14.37-11.77-21.3-1.48-2.63-2.95-5.25-4.41-7.87-1.36-2.43-2.71-4.86-4.07-7.29-15.22-27.24-30.95-55.4-43.04-83.88-13.52-31.85-21.06-61.01-23.07-89.13-2.81-39.86,9.4-82.95,32.67-115.28,13.15-18.64,28.4-32.15,45.3-40.16,5.49-2.6,11.08-4.7,16.62-6.25,9.49-2.66,19.39-4.01,29.42-4.01m0-.7c-9.82,0-19.71,1.26-29.6,4.03-5.83,1.63-11.4,3.77-16.73,6.29-18.46,8.74-33.43,23.18-45.58,40.39-23.74,32.97-35.57,76.43-32.8,115.73,4.66,65.56,37.84,122.46,70.26,180.59,5.35,9.59,10.88,19.27,16.17,29.17,5.3,9.93,10.47,20.06,15.21,30.23,4.74,10.16,9.19,20.53,13.17,31.04,1.99,5.25,3.78,10.56,5.58,15.85,19.17,56.3,12.61,116.52,.94,171.24-.4,6.43-1.09,12.77-2,19.13-4.59,31.82-15.24,64.8-.3,93.39,3.11,5.95,6.73,11.77,11,17.26,8.55,10.99,19.22,20.05,31.31,27.06,22.58,13.09,49.46,16.98,75.31,18.38,2.85,.15,5.69,.23,8.53,.23,32.74,0,65.05-9.8,96.59-19.3,56.37-16.95,118.14-40.34,143.92-93.47,20.75-42.55,13.1-93.05-1.81-137.25-14.93-44.15-36.81-86.3-44.63-132.84-1.62-9.62-2.63-19.09-2.86-28.33-.24-9.45,.42-18.36,1.46-27.23,1.04-8.86,2.46-17.69,4.26-26.95,2.66-13.68,6.96-26.66,12.04-39.51,5.08-12.87,11.02-25.59,17.76-38.12,37.41-69.51-37.63-73.49-86.97-98.73-52.32-26.77-95.18-68.99-138.24-104.15-34.74-28.36-77.63-54.14-122.02-54.14h0Z"/>
      </g>
      <g>
        <path class="cls-42" d="M1647.49,760.47c-37.95-28.41-85.82-53.8-133.66-39.25-5.1,1.55-9.97,3.54-14.64,5.85-16.13,7.96-29.06,21.03-39.83,36.34-21.2,29.26-32.46,67.09-31.26,101.27,2.07,57.02,28.2,106.5,55.03,158.11,4.4,8.47,9.06,16.97,13.5,25.68,4.43,8.76,8.79,17.69,12.78,26.65,4,8.96,7.77,18.1,11.16,27.37,1.69,4.63,3.22,9.3,4.76,13.97,16.4,49.55,11.25,102.49,2.04,150.48-.26,5.63-.75,11.18-1.45,16.75-3.46,27.85-12.29,56.75,1.4,81.49,3.01,5.43,6.58,10.67,10.69,15.62,8.2,9.9,18.28,18.07,29.66,24.3,21.32,11.67,46.27,13.89,70.17,15.19,31.21,1.7,62.02-8.14,91.99-17.4,49.26-15.2,103.07-36.08,125.91-82.59,18.56-37.54,12.68-81.99,.47-121.1-12.24-39.05-30.56-76.45-36.93-117.65-1.33-8.5-2.12-16.88-2.27-25.07s.46-16.24,1.4-24.09c.93-7.85,2.19-15.67,3.77-23.86,2.34-12.11,6.06-23.63,10.45-35.03,4.39-11.43,9.48-22.74,15.29-33.86,31.97-61.18-32.73-65.44-74.98-89.18-46.11-25.91-86.53-60.83-125.45-89.96Z"/>
        <path class="cls-37" d="M1647.49,760.47c-37.95-28.41-85.82-53.8-133.66-39.25-5.1,1.55-9.97,3.54-14.64,5.85-16.13,7.96-29.06,21.03-39.83,36.34-21.2,29.26-32.46,67.09-31.26,101.27,2.07,57.02,28.2,106.5,55.03,158.11,4.4,8.47,9.06,16.97,13.5,25.68,4.43,8.76,8.79,17.69,12.78,26.65,4,8.96,7.77,18.1,11.16,27.37,1.69,4.63,3.22,9.3,4.76,13.97,16.4,49.55,11.25,102.49,2.04,150.48-.26,5.63-.75,11.18-1.45,16.75-3.46,27.85-12.29,56.75,1.4,81.49,3.01,5.43,6.58,10.67,10.69,15.62,8.2,9.9,18.28,18.07,29.66,24.3,21.32,11.67,46.27,13.89,70.17,15.19,31.21,1.7,62.02-8.14,91.99-17.4,49.26-15.2,103.07-36.08,125.91-82.59,18.56-37.54,12.68-81.99,.47-121.1-12.24-39.05-30.56-76.45-36.93-117.65-1.33-8.5-2.12-16.88-2.27-25.07s.46-16.24,1.4-24.09c.93-7.85,2.19-15.67,3.77-23.86,2.34-12.11,6.06-23.63,10.45-35.03,4.39-11.43,9.48-22.74,15.29-33.86,31.97-61.18-32.73-65.44-74.98-89.18-46.11-25.91-86.53-60.83-125.45-89.96Z"/>
        <path class="cls-52" d="M1542.57,717.59c31.37,0,65.58,14.18,104.56,43.37,9.96,7.45,19.81,15.13,30.25,23.26,29.95,23.33,60.92,47.45,95.27,66.75,9.71,5.46,20.64,9.9,31.21,14.2,22.61,9.19,43.96,17.88,50.2,34.9,3.84,10.48,1.66,23.33-6.67,39.28-5.73,10.97-10.89,22.39-15.31,33.93-5.06,13.16-8.39,24.33-10.47,35.13-1.64,8.49-2.87,16.31-3.78,23.91-1.09,9.13-1.53,16.81-1.4,24.18,.14,7.91,.9,16.37,2.28,25.15,4.26,27.52,13.96,53.71,23.35,79.04,4.68,12.63,9.52,25.69,13.6,38.7,6.88,22.04,10.68,42.56,11.28,60.98,.73,22.4-3.21,42.47-11.71,59.68-22.15,45.11-73.43,66.21-125.55,82.28l-2.31,.71c-26.77,8.29-54.46,16.85-82.33,16.85-2.4,0-4.8-.06-7.14-.19-23.77-1.29-48.74-3.52-69.91-15.11-11.52-6.31-21.44-14.44-29.49-24.16-4.05-4.88-7.63-10.11-10.63-15.53-10.96-19.8-7.28-42.76-3.72-64.96,.85-5.31,1.73-10.8,2.4-16.16,.73-5.86,1.2-11.34,1.45-16.76,8.18-42.59,15.33-98.2-2.06-150.74l-.51-1.54c-1.35-4.09-2.75-8.32-4.26-12.44-3.2-8.75-6.85-17.72-11.17-27.4-3.57-8.01-7.64-16.49-12.8-26.68-2.6-5.1-5.3-10.19-7.92-15.12-1.85-3.47-3.75-7.06-5.58-10.57l-1.15-2.21c-26.63-51.21-51.78-99.58-53.82-155.65-1.22-34.58,10.42-72.3,31.15-100.9,12.03-17.11,24.98-28.93,39.6-36.14,4.95-2.44,9.71-4.35,14.55-5.82,9.18-2.79,18.78-4.21,28.56-4.21m0-.6c-9.53,0-19.13,1.31-28.73,4.23-5.1,1.55-9.97,3.54-14.64,5.85-16.13,7.96-29.06,21.03-39.83,36.34-21.2,29.26-32.46,67.09-31.26,101.27,2.07,57.02,28.2,106.5,55.03,158.11,4.4,8.47,9.06,16.97,13.5,25.68,4.43,8.76,8.79,17.69,12.78,26.65,4,8.96,7.77,18.1,11.16,27.37,1.69,4.63,3.22,9.3,4.76,13.97,16.4,49.55,11.25,102.49,2.04,150.48-.26,5.63-.75,11.18-1.45,16.75-3.46,27.85-12.29,56.75,1.4,81.49,3.01,5.43,6.58,10.67,10.69,15.62,8.2,9.9,18.28,18.07,29.66,24.3,21.32,11.67,46.27,13.89,70.17,15.19,2.39,.13,4.78,.19,7.17,.19,28.76,0,57.14-9.04,84.82-17.59,49.26-15.2,103.07-36.08,125.91-82.59,18.56-37.54,12.68-81.99,.47-121.1-12.24-39.05-30.56-76.45-36.93-117.65-1.33-8.5-2.12-16.88-2.27-25.07-.15-8.35,.46-16.24,1.4-24.09,.93-7.85,2.19-15.67,3.77-23.86,2.34-12.11,6.06-23.63,10.45-35.03,4.39-11.43,9.48-22.74,15.29-33.86,31.97-61.18-32.73-65.44-74.98-89.18-46.11-25.91-86.53-60.83-125.45-89.96-30.33-22.7-67-43.48-104.92-43.48h0Z"/>
      </g>
      <g>
        <path class="cls-42" d="M1657.04,795.49c-33.43-22.19-74.66-42.2-115.69-28.4-4.38,1.47-8.54,3.32-12.56,5.41-13.8,7.18-24.69,18.88-34.08,32.28-18.67,25.54-29.36,57.74-29.71,86.8-.52,48.47,18.56,90.52,39.8,135.63,3.45,7.33,7.24,14.66,10.82,22.2,3.57,7.58,7.1,15.31,10.36,23.08,3.26,7.76,6.36,15.68,9.15,23.69,1.4,4,2.66,8.05,3.95,12.08,13.64,42.81,9.9,88.47,3.13,129.72-.11,4.84-.42,9.6-.89,14.37-2.34,23.87-9.28,48.68,3.09,69.59,2.91,4.92,6.44,9.57,10.38,13.98,7.84,8.82,17.34,16.09,28.01,21.55,20.06,10.26,43.06,10.84,65.02,11.99,26.78,1.4,53.19-7.52,78.86-15.73,42.16-13.45,88-31.83,107.9-71.71,16.37-32.53,12.26-70.93,2.74-104.96-9.56-33.95-24.3-66.6-29.23-102.46-1.03-7.39-1.62-14.68-1.68-21.81s.5-14.12,1.33-20.96c.83-6.84,1.92-13.65,3.28-20.78,2.01-10.55,5.16-20.59,8.85-30.55,3.69-9.99,7.93-19.89,12.81-29.61,26.53-52.83-27.83-57.51-62.98-79.62-39.96-25.13-77.82-52.67-112.65-75.78Z"/>
        <path class="cls-28" d="M1657.04,795.49c-33.43-22.19-74.66-42.2-115.69-28.4-4.38,1.47-8.54,3.32-12.56,5.41-13.8,7.18-24.69,18.88-34.08,32.28-18.67,25.54-29.36,57.74-29.71,86.8-.52,48.47,18.56,90.52,39.8,135.63,3.45,7.33,7.24,14.66,10.82,22.2,3.57,7.58,7.1,15.31,10.36,23.08,3.26,7.76,6.36,15.68,9.15,23.69,1.4,4,2.66,8.05,3.95,12.08,13.64,42.81,9.9,88.47,3.13,129.72-.11,4.84-.42,9.6-.89,14.37-2.34,23.87-9.28,48.68,3.09,69.59,2.91,4.92,6.44,9.57,10.38,13.98,7.84,8.82,17.34,16.09,28.01,21.55,20.06,10.26,43.06,10.84,65.02,11.99,26.78,1.4,53.19-7.52,78.86-15.73,42.16-13.45,88-31.83,107.9-71.71,16.37-32.53,12.26-70.93,2.74-104.96-9.56-33.95-24.3-66.6-29.23-102.46-1.03-7.39-1.62-14.68-1.68-21.81s.5-14.12,1.33-20.96c.83-6.84,1.92-13.65,3.28-20.78,2.01-10.55,5.16-20.59,8.85-30.55,3.69-9.99,7.93-19.89,12.81-29.61,26.53-52.83-27.83-57.51-62.98-79.62-39.96-25.13-77.82-52.67-112.65-75.78Z"/>
        <path class="cls-46" d="M1569.42,763.05c33.91,0,66.1,18.75,87.35,32.86,13.15,8.73,26.53,17.94,40.7,27.71,23.15,15.95,47.08,32.44,71.96,48.08,8.31,5.22,17.7,9.49,26.79,13.61,18.62,8.45,36.21,16.43,41.44,31.23,3.26,9.21,1.48,20.38-5.42,34.13-4.69,9.35-9.01,19.33-12.83,29.66-4.27,11.51-7.09,21.24-8.87,30.63-1.41,7.39-2.48,14.2-3.28,20.81-.96,7.95-1.39,14.63-1.34,21.03,.06,6.89,.62,14.25,1.68,21.87,3.26,23.7,10.9,46.3,18.28,68.15,3.79,11.22,7.71,22.83,10.97,34.38,5.45,19.46,8.17,36.77,8.32,52.91,.18,19.39-3.53,36.78-11.03,51.69-19.36,38.82-63.16,57.29-107.6,71.46l-3.34,1.07c-22.66,7.27-46.1,14.78-69.7,14.78-1.89,0-3.79-.05-5.63-.15-1.3-.07-2.61-.13-3.92-.2-20.71-1.05-42.12-2.13-60.89-11.73-10.71-5.47-20.08-12.69-27.86-21.44-4.12-4.62-7.59-9.29-10.32-13.9-9.9-16.74-7.27-36.39-4.72-55.4,.61-4.56,1.24-9.28,1.69-13.89,.49-5.02,.78-9.72,.89-14.38,6.05-36.9,11.16-85-3.15-129.92l-.56-1.77c-1.08-3.39-2.19-6.9-3.39-10.33-2.62-7.52-5.62-15.28-9.16-23.72-2.85-6.78-6.14-14.12-10.37-23.1-1.72-3.63-3.52-7.25-5.25-10.76-1.86-3.76-3.78-7.64-5.57-11.44-19.81-42.06-40.29-85.56-39.76-135.41,.36-29.29,11.43-61.63,29.62-86.52,10.89-15.55,21.66-25.76,33.9-32.12,4.34-2.26,8.42-4.02,12.49-5.38,8.91-3,18.29-4.51,27.9-4.51m0-.5c-9.3,0-18.68,1.39-28.06,4.54-4.38,1.47-8.54,3.32-12.56,5.41-13.8,7.18-24.69,18.88-34.08,32.28-18.67,25.54-29.36,57.74-29.71,86.8-.52,48.47,18.56,90.52,39.8,135.63,3.45,7.33,7.24,14.66,10.82,22.2,3.57,7.58,7.1,15.31,10.36,23.08,3.26,7.76,6.36,15.68,9.15,23.69,1.4,4,2.66,8.05,3.95,12.08,13.64,42.81,9.9,88.47,3.13,129.72-.11,4.84-.42,9.6-.89,14.37-2.34,23.87-9.28,48.68,3.09,69.59,2.91,4.92,6.44,9.57,10.38,13.98,7.84,8.82,17.34,16.09,28.01,21.55,20.06,10.26,43.06,10.84,65.02,11.99,1.89,.1,3.78,.15,5.66,.15,24.84,0,49.34-8.25,73.2-15.88,42.16-13.45,88-31.83,107.9-71.71,16.37-32.53,12.26-70.93,2.74-104.96-9.56-33.95-24.3-66.6-29.23-102.46-1.03-7.39-1.62-14.68-1.68-21.81-.06-7.25,.5-14.12,1.33-20.96,.83-6.84,1.92-13.65,3.28-20.78,2.01-10.55,5.16-20.59,8.85-30.55,3.69-9.99,7.93-19.89,12.81-29.61,26.53-52.83-27.83-57.51-62.98-79.62-39.96-25.13-77.82-52.67-112.65-75.78-25.79-17.12-56.23-32.94-87.63-32.94h0Z"/>
      </g>
      <g>
        <path class="cls-42" d="M1666.6,830.5c-28.83-15.99-63.49-30.59-97.72-17.55-3.65,1.39-7.12,3.1-10.48,4.97-11.47,6.4-20.32,16.73-28.33,28.23-16.14,21.83-26.26,48.39-28.17,72.34-3.11,39.93,8.92,74.49,24.57,113.15,2.51,6.19,5.44,12.36,8.15,18.72s5.42,12.94,7.93,19.5c2.52,6.56,4.94,13.25,7.14,20.02,1.1,3.38,2.1,6.79,3.13,10.19,10.87,36.07,8.54,74.44,4.22,108.97,.03,4.04-.09,8.01-.33,12-1.21,19.9-6.19,40.58,4.79,57.69,2.82,4.4,6.29,8.46,10.06,12.33,7.49,7.73,16.4,14.11,26.36,18.79,18.8,8.84,39.83,10.12,59.87,8.79,22.33-1.48,44.36-6.91,65.73-14.07,35.06-11.69,72.85-27.61,89.88-60.83,14.12-27.55,11.85-59.86,5.02-88.81-6.87-28.85-18.04-56.75-21.54-87.27-.73-6.28-1.12-12.48-1.09-18.55s.54-12.01,1.27-17.83c.72-5.82,1.65-11.63,2.79-17.69,1.68-8.98,4.26-17.56,7.26-26.07,3-8.55,6.38-17.04,10.33-25.36,21.11-44.48-22.91-49.74-50.99-70.06-33.84-24.49-69.03-44.51-99.85-61.6Z"/>
        <path class="cls-15" d="M1666.6,830.5c-28.83-15.99-63.49-30.59-97.72-17.55-3.65,1.39-7.12,3.1-10.48,4.97-11.47,6.4-20.32,16.73-28.33,28.23-16.14,21.83-26.26,48.39-28.17,72.34-3.11,39.93,8.92,74.49,24.57,113.15,2.51,6.19,5.44,12.36,8.15,18.72s5.42,12.94,7.93,19.5c2.52,6.56,4.94,13.25,7.14,20.02,1.1,3.38,2.1,6.79,3.13,10.19,10.87,36.07,8.54,74.44,4.22,108.97,.03,4.04-.09,8.01-.33,12-1.21,19.9-6.19,40.58,4.79,57.69,2.82,4.4,6.29,8.46,10.06,12.33,7.49,7.73,16.4,14.11,26.36,18.79,18.8,8.84,39.83,10.12,59.87,8.79,22.33-1.48,44.36-6.91,65.73-14.07,35.06-11.69,72.85-27.61,89.88-60.83,14.12-27.55,11.85-59.86,5.02-88.81-6.87-28.85-18.04-56.75-21.54-87.27-.73-6.28-1.12-12.48-1.09-18.55s.54-12.01,1.27-17.83c.72-5.82,1.65-11.63,2.79-17.69,1.68-8.98,4.26-17.56,7.26-26.07,3-8.55,6.38-17.04,10.33-25.36,21.11-44.48-22.91-49.74-50.99-70.06-33.84-24.49-69.03-44.51-99.85-61.6Z"/>
        <path class="cls-47" d="M1596.65,808.32c25.81,0,50.84,12.04,69.76,22.53,30.47,16.89,65.82,36.98,99.81,61.57,6.82,4.93,14.58,8.99,22.08,12.9,11.79,6.16,22.92,11.97,29.17,20.44,6.97,9.46,6.85,20.97-.39,36.22-3.71,7.82-7.1,16.13-10.35,25.4-3.47,9.85-5.78,18.16-7.27,26.13-1.18,6.3-2.09,12.09-2.79,17.71-.84,6.77-1.25,12.45-1.27,17.88-.03,5.88,.34,12.14,1.1,18.59,2.27,19.83,7.84,38.78,13.23,57.12,2.9,9.87,5.9,20.07,8.31,30.2,8.57,36.32,6.94,65.28-4.99,88.54-16.7,32.58-52.96,48.4-89.65,60.64-24.29,8.14-45.75,12.73-65.63,14.05-4.46,.3-8.77,.44-12.82,.44-18.36,0-33.69-3.01-46.85-9.2-9.89-4.65-18.72-10.94-26.24-18.71-4.22-4.34-7.5-8.36-10.01-12.27-8.8-13.72-7.22-30.11-5.7-45.96,.36-3.77,.74-7.68,.97-11.49,.25-4.18,.36-8.1,.33-12,4.16-33.22,6.9-72.15-4.24-109.11l-.61-2.02c-.81-2.69-1.64-5.46-2.52-8.18-2.04-6.26-4.37-12.81-7.15-20.04-2.25-5.86-4.85-12.24-7.94-19.51-1.13-2.65-2.31-5.31-3.46-7.87-1.59-3.56-3.23-7.23-4.69-10.84-15.3-37.79-27.71-72.37-24.55-112.96,1.95-24.33,12.19-50.62,28.1-72.14,6.57-9.43,15.7-21.14,28.19-28.11,3.73-2.08,7.14-3.7,10.43-4.94,8.72-3.32,18.02-5.01,27.62-5.01m0-.4c-9.21,0-18.5,1.5-27.77,5.04-3.65,1.39-7.12,3.1-10.48,4.97-11.47,6.4-20.32,16.73-28.33,28.23-16.14,21.83-26.26,48.39-28.17,72.34-3.11,39.93,8.92,74.49,24.57,113.15,2.51,6.19,5.44,12.36,8.15,18.72,2.72,6.4,5.42,12.94,7.93,19.5,2.52,6.56,4.94,13.25,7.14,20.02,1.1,3.38,2.1,6.79,3.13,10.19,10.87,36.07,8.54,74.44,4.22,108.97,.03,4.04-.09,8.01-.33,12-1.21,19.9-6.19,40.58,4.79,57.69,2.82,4.4,6.29,8.46,10.06,12.33,7.49,7.73,16.4,14.11,26.36,18.79,14.82,6.97,31.02,9.24,47.02,9.24,4.31,0,8.6-.16,12.85-.45,22.33-1.48,44.36-6.91,65.73-14.07,35.06-11.69,72.85-27.61,89.88-60.83,14.12-27.55,11.85-59.86,5.02-88.81-6.87-28.85-18.04-56.75-21.54-87.27-.73-6.28-1.12-12.48-1.09-18.55,.03-6.16,.54-12.01,1.27-17.83,.72-5.82,1.65-11.63,2.79-17.69,1.68-8.98,4.26-17.56,7.26-26.07,3-8.55,6.38-17.04,10.33-25.36,21.11-44.48-22.91-49.74-50.99-70.06-33.84-24.49-69.03-44.51-99.85-61.6-21.03-11.66-45.15-22.58-69.95-22.58h0Z"/>
      </g>
      <g>
        <path class="cls-42" d="M1676.16,865.52c-24.1-9.86-52.32-18.99-79.75-6.69-2.92,1.3-5.69,2.87-8.39,4.53-9.14,5.61-15.95,14.58-22.58,24.17-13.61,18.11-23.16,39.05-26.63,57.88-5.7,31.38-.69,58.4,9.35,90.66,1.57,5.04,3.62,10.06,5.47,15.24s3.73,10.56,5.51,15.93c1.78,5.36,3.52,10.82,5.13,16.35,.81,2.75,1.55,5.53,2.31,8.3,8.11,29.33,7.19,60.41,5.31,88.21,.18,3.24,.25,6.43,.23,9.62-.09,15.93-3,32.43,6.48,45.79,2.75,3.88,6.15,7.36,9.75,10.69,7.14,6.65,15.46,12.13,24.7,16.04,17.55,7.42,36.61,7.49,54.72,5.59s35.53-6.29,52.6-12.4c27.95-9.94,57.78-23.35,71.87-49.96,11.93-22.54,11.43-48.8,7.29-72.67-4.19-23.75-11.79-46.91-13.84-72.08-.44-5.17-.62-10.27-.5-15.29s.58-9.89,1.2-14.7c.62-4.81,1.39-9.61,2.3-14.6,1.35-7.41,3.36-14.53,5.66-21.59,2.3-7.11,4.84-14.18,7.86-21.11,15.71-36.1-17.92-42.22-38.99-60.5-27.74-24.07-60.1-36.39-87.06-47.42Z"/>
        <path class="cls-9" d="M1676.16,865.52c-24.1-9.86-52.32-18.99-79.75-6.69-2.92,1.3-5.69,2.87-8.39,4.53-9.14,5.61-15.95,14.58-22.58,24.17-13.61,18.11-23.16,39.05-26.63,57.88-5.7,31.38-.69,58.4,9.35,90.66,1.57,5.04,3.62,10.06,5.47,15.24s3.73,10.56,5.51,15.93c1.78,5.36,3.52,10.82,5.13,16.35,.81,2.75,1.55,5.53,2.31,8.3,8.11,29.33,7.19,60.41,5.31,88.21,.18,3.24,.25,6.43,.23,9.62-.09,15.93-3,32.43,6.48,45.79,2.75,3.88,6.15,7.36,9.75,10.69,7.14,6.65,15.46,12.13,24.7,16.04,17.55,7.42,36.61,7.49,54.72,5.59s35.53-6.29,52.6-12.4c27.95-9.94,57.78-23.35,71.87-49.96,11.93-22.54,11.43-48.8,7.29-72.67-4.19-23.75-11.79-46.91-13.84-72.08-.44-5.17-.62-10.27-.5-15.29s.58-9.89,1.2-14.7c.62-4.81,1.39-9.61,2.3-14.6,1.35-7.41,3.36-14.53,5.66-21.59,2.3-7.11,4.84-14.18,7.86-21.11,15.71-36.1-17.92-42.22-38.99-60.5-27.74-24.07-60.1-36.39-87.06-47.42Z"/>
        <path class="cls-49" d="M1624.8,853.2c17.97,0,35.25,6.05,51.24,12.59,1.68,.69,3.39,1.38,5.12,2.09,26.2,10.66,55.89,22.75,81.86,45.28,5.23,4.54,11.23,8.33,17.04,12,8.87,5.6,17.24,10.89,21.97,18.18,5.29,8.15,5.26,17.68-.1,29.98-2.71,6.23-5.21,12.94-7.87,21.14-2.67,8.21-4.48,15.08-5.67,21.63-.95,5.2-1.7,9.99-2.3,14.62-.72,5.6-1.1,10.28-1.21,14.73-.11,4.87,.06,10.03,.51,15.32,1.29,15.85,4.82,31.07,8.23,45.79,2,8.61,4.06,17.51,5.61,26.32,5.16,29.79,2.79,53.5-7.26,72.48-6.4,12.08-16.41,22.26-30.63,31.11-13.56,8.45-29.08,14.43-41.08,18.7-18.06,6.46-35.73,10.62-52.53,12.38-6.69,.7-12.65,1.04-18.22,1.04-13.94,0-25.83-2.16-36.35-6.61-9.06-3.83-17.34-9.21-24.62-15.98-4.35-4.03-7.34-7.31-9.71-10.65-3.43-4.84-5.52-10.56-6.39-17.49-.78-6.2-.52-12.81-.28-19.19,.11-2.93,.23-5.97,.24-8.94,.02-3.34-.06-6.5-.23-9.6,1.94-28.84,2.65-59.5-5.32-88.31-.22-.79-.43-1.57-.65-2.36-.53-1.96-1.09-3.98-1.67-5.95-1.44-4.92-3.12-10.27-5.14-16.36-1.55-4.66-3.3-9.72-5.51-15.93-.65-1.82-1.33-3.64-1.99-5.4-1.26-3.37-2.46-6.56-3.47-9.82-9.77-31.41-15.09-58.83-9.34-90.52,3.48-18.86,13.17-39.91,26.58-57.76,6.25-9.04,13.13-18.35,22.49-24.09,3.18-1.95,5.83-3.38,8.36-4.51,8.85-3.97,18.1-5.9,28.27-5.9m0-.3c-9.43,0-18.96,1.69-28.39,5.92-2.92,1.3-5.69,2.87-8.39,4.53-9.14,5.61-15.95,14.58-22.58,24.17-13.61,18.11-23.16,39.05-26.63,57.88-5.7,31.38-.69,58.4,9.35,90.66,1.57,5.04,3.62,10.06,5.47,15.24,1.86,5.22,3.73,10.56,5.51,15.93,1.78,5.36,3.52,10.82,5.13,16.35,.81,2.75,1.55,5.53,2.31,8.3,8.11,29.33,7.19,60.41,5.31,88.21,.18,3.24,.25,6.43,.23,9.62-.09,15.93-3,32.43,6.48,45.79,2.76,3.88,6.15,7.36,9.75,10.69,7.14,6.65,15.46,12.13,24.7,16.04,11.73,4.96,24.13,6.64,36.47,6.64,6.13,0,12.24-.41,18.25-1.04,17.85-1.87,35.53-6.29,52.6-12.4,27.95-9.94,57.78-23.35,71.87-49.96,11.93-22.54,11.43-48.8,7.29-72.67-4.19-23.75-11.79-46.91-13.84-72.08-.44-5.17-.62-10.27-.5-15.29,.12-5.06,.58-9.89,1.2-14.7,.62-4.81,1.39-9.61,2.3-14.6,1.35-7.41,3.36-14.53,5.66-21.59,2.3-7.11,4.84-14.18,7.86-21.11,15.71-36.1-17.92-42.22-38.99-60.5-27.74-24.07-60.1-36.39-87.06-47.42-15.8-6.47-33.39-12.62-51.35-12.62h0Z"/>
      </g>
      <g>
        <path class="cls-42" d="M1685.71,900.53c-19.17-3.94-41.16-7.38-61.78,4.16-2.19,1.22-4.26,2.64-6.31,4.09-6.81,4.81-11.58,12.44-16.83,20.12-11.08,14.39-20.05,29.7-25.09,43.41-8.29,22.84-10.22,42.2-5.88,68.18,.65,3.88,1.8,7.76,2.79,11.76s2.05,8.19,3.08,12.35c1.04,4.16,2.1,8.39,3.12,12.68,.51,2.13,.99,4.27,1.5,6.42,5.35,22.59,5.83,46.39,6.4,67.46,.32,2.44,.58,4.84,.79,7.24,1.04,11.95,.32,24.2,8.17,33.89,2.71,3.35,6.01,6.26,9.43,9.05,6.79,5.56,14.53,10.14,23.05,13.28,16.31,6,33.37,4.96,49.58,2.4,13.38-2.12,26.7-5.68,39.46-10.73,20.85-8.19,42.73-19.09,53.86-39.08,9.76-17.52,11.01-37.74,9.57-56.52-1.5-18.65-5.53-37.06-6.14-56.89-.14-4.05-.12-8.07,.08-12.03s.62-7.77,1.14-11.57c.52-3.8,1.12-7.59,1.8-11.51,1.02-5.84,2.46-11.49,4.07-17.11,1.61-5.66,3.31-11.32,5.38-16.86,10.36-27.68-12.75-35.03-27-50.94-21.49-24.01-50.97-28.45-74.26-33.23Z"/>
        <path class="cls-40" d="M1685.71,900.53c-19.17-3.94-41.16-7.38-61.78,4.16-2.19,1.22-4.26,2.64-6.31,4.09-6.81,4.81-11.58,12.44-16.83,20.12-11.08,14.39-20.05,29.7-25.09,43.41-8.29,22.84-10.22,42.2-5.88,68.18,.65,3.88,1.8,7.76,2.79,11.76s2.05,8.19,3.08,12.35c1.04,4.16,2.1,8.39,3.12,12.68,.51,2.13,.99,4.27,1.5,6.42,5.35,22.59,5.83,46.39,6.4,67.46,.32,2.44,.58,4.84,.79,7.24,1.04,11.95,.32,24.2,8.17,33.89,2.71,3.35,6.01,6.26,9.43,9.05,6.79,5.56,14.53,10.14,23.05,13.28,16.31,6,33.37,4.96,49.58,2.4,13.38-2.12,26.7-5.68,39.46-10.73,20.85-8.19,42.73-19.09,53.86-39.08,9.76-17.52,11.01-37.74,9.57-56.52-1.5-18.65-5.53-37.06-6.14-56.89-.14-4.05-.12-8.07,.08-12.03s.62-7.77,1.14-11.57c.52-3.8,1.12-7.59,1.8-11.51,1.02-5.84,2.46-11.49,4.07-17.11,1.61-5.66,3.31-11.32,5.38-16.86,10.36-27.68-12.75-35.03-27-50.94-21.49-24.01-50.97-28.45-74.26-33.23Z"/>
        <path class="cls-45" d="M1656.1,897c10.56,0,20.8,1.92,29.57,3.72,1.62,.33,3.26,.66,4.94,1,21.95,4.4,49.26,9.88,69.21,32.17,3.55,3.96,7.66,7.41,11.63,10.74,11.86,9.94,23.06,19.33,15.33,40-2.15,5.74-3.86,11.5-5.38,16.87-1.88,6.58-3.18,12.03-4.07,17.13-.72,4.12-1.31,7.89-1.8,11.52-.6,4.43-.96,8.11-1.14,11.58-.2,3.86-.23,7.91-.08,12.04,.36,11.62,1.9,22.85,3.39,33.71,1.04,7.6,2.13,15.46,2.75,23.2,1.78,23.22-1.34,41.67-9.55,56.41-11.22,20.16-33.47,31.02-53.75,38.99-12.53,4.96-25.8,8.56-39.42,10.72-8.76,1.39-15.97,2.03-22.69,2.03-9.95,0-18.71-1.45-26.79-4.42-8.22-3.03-15.96-7.48-22.99-13.25-3.05-2.49-6.55-5.5-9.4-9.02-6.49-8-7.08-17.57-7.7-27.7-.12-1.99-.25-4.06-.43-6.08-.22-2.5-.48-4.87-.79-7.23l-.06-2.09c-.55-20.41-1.17-43.55-6.35-65.41-.22-.95-.44-1.9-.66-2.85-.27-1.19-.55-2.38-.83-3.57-.94-3.94-1.92-7.86-2.87-11.67l-.25-1.01-1.09-4.35c-.67-2.69-1.34-5.36-2-8-.28-1.12-.57-2.23-.86-3.34-.76-2.89-1.47-5.62-1.93-8.4-4.27-25.59-2.62-44.68,5.87-68.08,4.89-13.32,13.79-28.72,25.07-43.37,.52-.76,1.03-1.52,1.55-2.28,4.69-6.93,9.12-13.48,15.23-17.79,1.85-1.3,4.01-2.8,6.29-4.07,9.45-5.29,19.94-7.86,32.07-7.86m0-.2c-10.71,0-21.61,1.98-32.16,7.89-2.19,1.22-4.26,2.64-6.31,4.09-6.81,4.81-11.58,12.44-16.83,20.12-11.08,14.39-20.05,29.7-25.09,43.41-8.29,22.84-10.22,42.2-5.88,68.18,.65,3.88,1.8,7.76,2.79,11.76,1,4.05,2.05,8.19,3.08,12.35,1.04,4.16,2.1,8.39,3.12,12.68,.51,2.13,.99,4.27,1.5,6.42,5.35,22.59,5.83,46.39,6.4,67.46,.32,2.44,.58,4.84,.79,7.24,1.04,11.95,.32,24.2,8.17,33.89,2.71,3.35,6.01,6.26,9.43,9.05,6.79,5.56,14.53,10.14,23.05,13.28,8.82,3.24,17.85,4.43,26.85,4.43,7.65,0,15.28-.86,22.72-2.03,13.38-2.12,26.7-5.68,39.46-10.73,20.85-8.19,42.73-19.09,53.86-39.08,9.76-17.52,11.01-37.74,9.57-56.52-1.5-18.65-5.53-37.06-6.14-56.89-.14-4.05-.12-8.07,.08-12.03,.2-3.96,.62-7.77,1.14-11.57,.52-3.8,1.12-7.59,1.8-11.51,1.02-5.84,2.46-11.49,4.07-17.11,1.61-5.66,3.31-11.32,5.38-16.86,10.36-27.68-12.75-35.03-27-50.94-21.49-24.01-50.97-28.45-74.26-33.23-9.36-1.92-19.4-3.73-29.61-3.73h0Z"/>
      </g>
      <g>
        <path class="cls-42" d="M1695.27,935.55c-14.16,1.49-29.99,4.23-43.81,15.01-1.47,1.14-2.84,2.4-4.23,3.64-4.48,3.98-7.21,10.29-11.08,16.06-8.55,10.68-16.95,20.35-23.55,28.95-10.88,14.29-19.45,25.87-21.11,45.7-.23,2.69-.02,5.46,.12,8.27s.36,5.82,.66,8.78c.3,2.96,.68,5.97,1.12,9,.22,1.5,.43,3.02,.68,4.53,2.6,15.85,4.47,32.36,7.49,46.7,.46,1.64,.91,3.26,1.35,4.86,2.16,7.98,3.79,15.85,9.87,21.99,2.73,2.76,5.86,5.15,9.12,7.41,6.44,4.48,13.61,8.16,21.4,10.52,15.07,4.58,30.18,2.66,44.43-.8,8.93-2.17,17.87-5.07,26.33-9.06,13.75-6.44,27.72-14.79,35.84-28.2,7.63-12.48,10.59-26.68,11.85-40.38,1.19-13.56,.76-27.21,1.56-41.7,.16-2.94,.38-5.87,.67-8.77s.67-5.65,1.08-8.44c.41-2.79,.85-5.57,1.31-8.43,.7-4.27,1.56-8.46,2.47-12.63,.92-4.22,1.79-8.45,2.9-12.6,5.12-19.21-7.16-28.23-15-41.39-14.61-24.52-41.73-21.13-61.46-19.05Z"/>
        <path class="cls-3" d="M1695.27,935.55c-14.16,1.49-29.99,4.23-43.81,15.01-1.47,1.14-2.84,2.4-4.23,3.64-4.48,3.98-7.21,10.29-11.08,16.06-8.55,10.68-16.95,20.35-23.55,28.95-10.88,14.29-19.45,25.87-21.11,45.7-.23,2.69-.02,5.46,.12,8.27s.36,5.82,.66,8.78c.3,2.96,.68,5.97,1.12,9,.22,1.5,.43,3.02,.68,4.53,2.6,15.85,4.47,32.36,7.49,46.7,.46,1.64,.91,3.26,1.35,4.86,2.16,7.98,3.79,15.85,9.87,21.99,2.73,2.76,5.86,5.15,9.12,7.41,6.44,4.48,13.61,8.16,21.4,10.52,15.07,4.58,30.18,2.66,44.43-.8,8.93-2.17,17.87-5.07,26.33-9.06,13.75-6.44,27.72-14.79,35.84-28.2,7.63-12.48,10.59-26.68,11.85-40.38,1.19-13.56,.76-27.21,1.56-41.7,.16-2.94,.38-5.87,.67-8.77s.67-5.65,1.08-8.44c.41-2.79,.85-5.57,1.31-8.43,.7-4.27,1.56-8.46,2.47-12.63,.92-4.22,1.79-8.45,2.9-12.6,5.12-19.21-7.16-28.23-15-41.39-14.61-24.52-41.73-21.13-61.46-19.05Z"/>
        <path class="cls-44" d="M1715.51,934.21c12.43,0,30.22,2.12,41.14,20.44,1.81,3.04,3.88,5.89,5.88,8.64,6.7,9.23,13.04,17.94,9.11,32.67-.96,3.59-1.76,7.29-2.53,10.87l-.38,1.74c-.81,3.68-1.73,8.06-2.47,12.63-.51,3.13-.94,5.89-1.31,8.43-.49,3.36-.83,5.96-1.08,8.44-.28,2.76-.5,5.63-.67,8.77-.34,6.22-.46,12.33-.58,18.25-.16,8.08-.3,15.72-.98,23.45-1.54,16.83-5.3,29.64-11.83,40.34-8.54,14.1-23.62,22.45-35.8,28.16-7.84,3.7-16.45,6.66-26.31,9.05-9.83,2.38-17.93,3.49-25.49,3.49-6.74,0-12.92-.88-18.88-2.69-7.37-2.24-14.56-5.77-21.37-10.51-3.92-2.72-6.73-5-9.1-7.4-5.49-5.55-7.31-12.42-9.24-19.7-.2-.75-.4-1.5-.6-2.25-.46-1.69-.9-3.28-1.35-4.85-1.94-9.19-3.37-19.07-4.89-29.52-.82-5.65-1.67-11.49-2.6-17.18-.22-1.35-.42-2.72-.61-4.04l-.07-.49c-.47-3.34-.84-6.28-1.11-9-.3-2.99-.52-5.94-.66-8.77-.02-.43-.04-.85-.06-1.27-.13-2.42-.24-4.71-.05-6.99,1.7-20.17,10.68-31.98,21.09-45.65,3.76-4.9,8.12-10.16,12.73-15.73,3.51-4.24,7.14-8.62,10.82-13.22,1.22-1.83,2.34-3.72,3.42-5.55,2.36-4,4.59-7.78,7.64-10.49,.25-.23,.51-.45,.76-.68,1.11-1,2.27-2.03,3.47-2.96,13.52-10.55,29.02-13.44,43.76-14.99l1.18-.12c5.83-.62,12.43-1.31,19.05-1.31m0-.1c-7.07,0-14.02,.78-20.24,1.44-14.16,1.49-29.99,4.23-43.81,15.01-1.47,1.14-2.84,2.4-4.23,3.64-4.48,3.98-7.21,10.29-11.08,16.06-8.55,10.68-16.95,20.35-23.55,28.95-10.88,14.29-19.45,25.87-21.11,45.7-.23,2.69-.02,5.46,.12,8.27,.14,2.88,.36,5.82,.66,8.78,.3,2.96,.68,5.97,1.11,9,.22,1.5,.43,3.02,.68,4.53,2.6,15.85,4.47,32.36,7.49,46.7,.46,1.64,.91,3.26,1.35,4.86,2.16,7.98,3.79,15.85,9.87,21.99,2.73,2.76,5.86,5.15,9.12,7.41,6.44,4.48,13.61,8.16,21.4,10.52,6.32,1.92,12.65,2.7,18.91,2.7,8.68,0,17.24-1.49,25.52-3.5,8.93-2.17,17.87-5.07,26.33-9.06,13.75-6.44,27.72-14.79,35.84-28.2,7.63-12.48,10.59-26.68,11.85-40.38,1.19-13.56,.76-27.21,1.56-41.7,.16-2.94,.38-5.87,.67-8.77,.29-2.86,.67-5.65,1.08-8.43,.41-2.79,.85-5.57,1.31-8.43,.7-4.27,1.56-8.46,2.47-12.63,.92-4.22,1.79-8.45,2.9-12.6,5.12-19.21-7.16-28.23-15-41.39-10-16.79-25.88-20.49-41.22-20.49h0Z"/>
      </g>
      <path class="cls-30" d="M1676.84,999.63c-2.3,3.03-2.84,8.14-5.33,12.01-15.94,18.46-44.69,16.41-58.35,37.71-12.42,19.36-1.76,45.32,16.7,56.48,8.24,6.31,17.97,10.85,28.55,13.53,13.92,2.79,27.29,1.12,39.28-4,11.99-5.11,22.61-13.67,31.03-24.71,23.04-31.62,33.44-75.5,24.76-115.22-5.55-25.42-33.11-14.41-48.67-4.87-10.63,7.33-20.76,17.81-27.98,29.07Z"/>
    </g>
    <g>
      <path class="cls-20" d="M1270.87,526.22c-19.18,.03-35.93,12.23-51.16,23.88-9.19,7.03-18.39,14.07-27.58,21.1-9.19,7.04-18.38,14.08-27.54,21.18-44.97,45.27-133.86,62.75-133.65,139.46-1.29,31.55,25.15,55.26,51.3,71.53,11.18,7.73,23.62,13.77,36.53,18.85,12.91,5.08,26.29,9.19,39.55,13.24,16.38,5.01,33.07,10.06,50.19,9.94,17.13-.12,35.07-6.23,45.47-19.84,10.35-13.55,11.58-32.15,8.6-48.94-2.98-16.79-9.67-32.69-13.74-49.25-9.91-40.31-2.63-84.1,17.9-119.97,8.24-14.4,32.4-31.09,36.79-45.48,5.73-18.79-15.61-35.73-32.68-35.7Z"/>
      <path class="cls-32" d="M1176.48,601.44c-7.59,5.38-15.39,10.42-22.58,16.23-14.13,11.42-31.11,21.57-48.41,31.41-25.98,14.78-51.42,30.92-59.09,59.12-1.2,5.49-1.64,11.38-1.57,17.74,.25,25.25,21.1,43.91,41.91,57.46,9.01,5.87,18.72,10.84,28.93,14.84,10.22,4,20.8,7.24,31.31,10.42,12.97,3.92,26.19,7.59,39.72,7.89,7.26,.16,14.62-.24,21.6-1.7,9.2-1.94,18.22-5.39,24.29-12.75,8.46-10.26,9.45-24.83,7.48-37.89-1.98-13.03-6.79-25.45-9.7-38.4-7.11-31.42-1.56-65.58,13.61-93.81,6.13-11.41,24.06-24.55,27.22-35.9,4.09-14.69-12.18-26.8-25.14-28.36-16.41-1.97-30.91,6.17-44.69,15.98-8.24,5.88-16.61,11.87-24.87,17.73Z"/>
      <path class="cls-11" d="M1160.82,631.68c-5.95,3.77-11.93,7.35-17.62,11.28-11.16,7.71-24.39,14.29-37.74,20.89-20.02,9.91-40.01,21.55-46.29,42.78-.65,4.2-.76,8.65-.48,13.41,1.1,18.93,16.65,33.18,32.52,43.4,6.66,4.29,13.81,7.91,21.32,10.83,7.52,2.93,15.31,5.3,23.06,7.6,9.56,2.84,19.31,5.3,29.24,5.85,7.15,.4,14.34,.73,21.3,.21,9.12-.71,18.76-2.3,25.02-9.27,6.38-7.1,7.31-17.52,6.37-26.84-.97-9.28-3.92-18.22-5.67-27.56-4.32-22.53-.49-47.08,9.32-67.65,4.02-8.42,15.73-18.02,17.65-26.33,2.45-10.59-8.58-20.13-17.6-21.03-13.18-6.79-25.88,.11-38.23,8.08-7.28,4.73-14.81,9.7-22.17,14.35Z"/>
      <path class="cls-8" d="M1145.17,661.92c-4.26,2.22-8.48,4.28-12.66,6.33-8.22,4.03-17.67,7.01-27.07,10.36-14.05,5.04-28.61,12.17-33.48,26.44-.1,2.91,.13,5.93,.61,9.07,1.96,12.62,12.19,22.46,23.13,29.33,4.31,2.7,8.91,4.98,13.72,6.83,4.83,1.86,9.82,3.36,14.81,4.78,6.15,1.76,12.43,3.17,18.76,3.8,7.05,.7,14.06,1.71,20.99,2.11,9.05,.52,19.21,.73,25.75-5.79,4.11-4.09,5.2-10.2,5.25-15.78s-1.02-10.99-1.64-16.72c-1.47-13.65,.56-28.61,5.03-41.49,1.89-5.45,7.41-11.47,8.08-16.75,.83-6.48-5.06-12.33-10.06-13.7-10.18-10.2-20.86-5.95-31.76,.18-6.32,3.58-12.95,7.59-19.46,10.98Z"/>
      <path class="cls-21" d="M1129.51,692.17c-7.69,2.5-16.02,1.06-24.1,1.23-8.08,.17-17.2,2.8-20.67,10.1,2.29,8.33,7.96,15.68,15.45,20,6.37,3.68,13.74,5.14,20.95,6.54,6.89,1.34,13.78,2.68,20.68,4.02,8.98,1.75,19.2,3.23,26.49-2.3,10.48-7.96,8.8-28.98,3.26-39.47-11.26-21.33-26.14-5.29-42.05-.11Z"/>
    </g>
  </g>
</svg>