<?xml version="1.0" encoding="UTF-8"?><svg id="Layer_1" xmlns="http://www.w3.org/2000/svg" viewBox="0 0 900 169"><defs><style>.cls-1{fill:#fff;}</style></defs><path class="cls-1" d="M230.42,55.18c-1.32-2.49-1.84-5.15-1.84-7.92,.02-.14,.04-.28,.05-.42,.61-8.92,8.09-15.63,17.45-15.63,24.01,0,120.62,.02,120.62,.02v-1.08s0-15.22,0-15.22h-1.07s-103.76,.02-131.94,.02c-.74,0-1.48,.05-2.22,.16-12.61,1.86-18.91,15.69-11.74,25.79,2.12,2.99,5.01,5.04,8.5,6.36-1.95,.69-3.98,.94-6.04,.86-.61-.03-.89,.18-1.17,.65-15.49,26.47-31,52.93-46.5,79.4-1.19,2.03-2.39,4.06-3.62,6.15-.21-.35-.38-.62-.54-.89-8.56-14.61-17.12-29.22-25.68-43.82-7.95-13.57-15.91-27.13-23.84-40.71-.4-.68-.75-.93-1.63-.83-2.33,.25-4.62-.06-6.84-.8-.12,0-.24,0-.37,0-.02,.23-.06,.45-.06,.68-.09,4.15-1.55,7.79-4.43,10.89-.4,.43-.39,.69-.11,1.15,7.11,12.1,14.19,24.2,21.29,36.31,12.79,21.83,25.58,43.66,38.37,65.48,1.04,1.78,2.09,3.55,3.2,5.43,.27-.44,.49-.77,.68-1.11,14.39-24.56,28.77-49.11,43.16-73.67,6.34-10.82,12.67-21.63,19.03-32.44,.28-.48,.28-.75-.11-1.16-1.06-1.08-1.91-2.32-2.61-3.65Z"/><path class="cls-1" d="M121.01,.31c7.5,1.18,13.71,7.8,14.08,15.08,.04,.73,.28,.87,.99,.87,7.74-.02,15.47-.02,23.21-.01,1.29,0,1.14-.16,1.14,1.09,0,24.96,0,49.92,0,74.88,0,.4,0,.8,.03,1.2,.22,5.02,4.46,9.16,9.7,9.46,6.21,.36,11.17-4.21,11.17-10.32,0-25.1,0-50.21-.02-75.31,0-.84,.23-1.02,1.08-1.02,7.38,.03,14.76,.02,22.14,.02,.53,0,.9,.04,.96-.71,.54-6.15,3.7-10.69,9.34-13.65,1.89-.99,3.95-1.5,6.06-1.88H119.53V.09c.5,.07,.99,.15,1.48,.22Z"/><path class="cls-1" d="M85.21,36.82H43.8c-6.05,0-14.64,0-22.55,0H0v16.28s1.1,.02,1.1,.02c0,0,8.51,0,20.13,0,15.93,0,37.72,0,51.53,0,.98,0,1.97,.04,2.94,.15,4.61,.51,8.81,3.03,11.58,6.56,1.94,2.46,3.17,5.41,3.37,8.5q.06,.94,1.02,.57c4.49-1.73,7.84-5.04,9.58-9.06,1.27-2.96,1.66-6.3,.97-9.69-1.56-7.68-8.74-13.29-17.03-13.29Z"/><path class="cls-1" d="M112.04,47.27c.12,0,.24,0,.36,0,.15-.08,.3-.18,.46-.24,1.74-.7,3.3-1.6,4.66-2.67,4.83-3.78,7.14-9.64,5.99-15.97-1.34-7.41-8.58-13.41-16.35-13.42-28.35-.03-85.06-.02-85.06-.02h-.83V31.23s1.13,0,1.13,0c0,0,48.26-.02,72.38-.02,7.31,0,13.92,4.58,16.27,11.22,.56,1.58,.75,3.21,1,4.83Z"/><path class="cls-1" d="M461.59,37.27c3.72-3.72,8.34-8.34,13.2-13.2l-4.89-8.74h-37.9v51.53l29.59-29.59Z"/><g><path class="cls-1" d="M366.73,52.91l-.03-1v-2.17h.01v-11.93s.01-1.07,.01-1.07c0,0-83.07,.02-110.86,.03-.95,0-1.91,.02-2.85,.14-8.25,1.12-14.16,6.96-15.11,14.9-.87,7.26,3.82,14.58,10.97,17.14,.54,.19,.83,.27,.85-.48,.06-1.87,.52-3.67,1.35-5.36,3.28-6.62,8.78-10,16.42-10.03,3.12-.01,5.67-.02,7.96-.02v113.06h34.81v-58.71h44.7v-34.81h-44.7v-19.55c21.92-.04,56.45-.14,56.45-.14Z"/><path class="cls-1" d="M651.99,147.78h-47.58l-6.18,18.33h-36.87L612.86,14.92h32.96l48.82,151.19h-36.67l-5.97-18.33Zm-11.12-34.81l-11.95-36.66-12.57,36.66h24.51Z"/><path class="cls-1" d="M793.09,166.12h-90.02V14.72h34.81v116.59h55.2v34.81Z"/><path class="cls-1" d="M821.11,160.97c-14.83-9.68-23.48-25.54-23.48-43.67h34.81c0,8.24,4.74,12.57,7.42,14.21,4.94,3.3,10.92,3.5,16.48,1.03,7.83-3.3,8.65-10.09,8.65-12.77,0-2.88-.82-9.06-8.65-12.98-3.09-1.44-6.39-2.27-10.3-3.71-6.8-2.27-14.42-4.53-21.83-9.27-19.36-12.15-26.57-37.7-16.07-58.09,9.89-18.54,30.49-28.01,52.11-22.45,20.8,4.94,34.81,22.25,34.81,42.85h-34.81c0-6.39-5.15-8.24-8.24-9.06-1.03,0-9.27-2.27-12.77,4.74-2.27,4.33-.62,9.89,3.5,12.57,3.91,2.27,8.65,3.91,13.8,5.56,4.74,1.44,9.48,2.88,14.42,5.15,18.13,8.24,29.04,25.13,29.04,44.7s-10.92,36.25-29.04,44.49c-7.21,3.3-14.63,4.74-22.04,4.74-9.68,0-19.36-2.47-27.81-8.03Z"/><path class="cls-1" d="M384.06,86.07c9.99,6.62,23.81,4.93,32.77-4.04l.96-.96V14.72h-34.81V85.29c.35,.26,.71,.53,1.08,.77Z"/><path class="cls-1" d="M458.03,74.83c5.16-5.16,19.11-19.11,28.97-28.96l-7.86-14.05c-11.79,11.8-30.6,30.62-47.13,47.16v21.87l26.03-26.03Z"/><path class="cls-1" d="M413.27,119.59l4.52-4.52v-21.87c-1.83,1.83-3.59,3.59-5.23,5.23-7.9,7.9-19.15,11.07-28.87,6.43-.24-.12-.47-.23-.71-.34v20.52c9.7,4.87,22.05,2.79,30.29-5.45Z"/><g><path class="cls-1" d="M454.47,112.46c2.02-2.02,6.65-6.65,12.35-12.35v-21.97c-10.22,10.23-22.92,22.93-34.81,34.83v21.95l22.46-22.46Z"/><path class="cls-1" d="M499.23,67.72l-7.9-14.11-4.11,4.11s-8.49,8.5-20.34,20.35l7.9,14.08c8.81-8.81,18.35-18.35,24.45-24.44Z"/><path class="cls-1" d="M409.71,157.22l8.09-8.09v-21.95c-3.15,3.15-6.11,6.11-8.8,8.8-7.14,7.14-17.01,10.39-26.02,7.53v20.61c9.02,2.83,19.47,.35,26.72-6.91Z"/><path class="cls-1" d="M519.14,15.34V103.29l-15.58-27.84-19.9,19.9s-1.66,1.67-4.54,4.54l37.13,66.22h37.7V15.34h-34.81Z"/><path class="cls-1" d="M432.01,147.04v19.07h34.81v-53.91c-9.77,9.78-22.54,22.56-34.81,34.83Z"/><path class="cls-1" d="M412.94,166.12h4.86v-4.86c-1.66,1.66-3.28,3.29-4.86,4.86Z"/></g></g></svg>