<?xml version="1.0" encoding="UTF-8"?>
<svg id="Layer_1" data-name="Layer 1" xmlns="http://www.w3.org/2000/svg" viewBox="0 0 500 112">
  <defs>
    <style>
      .cls-1 {
        fill: #fff;
      }
    </style>
  </defs>
  <g>
    <path class="cls-1" d="M128.96,42.63c-.72-1.36-1-2.81-1.01-4.33,0-.08,.02-.15,.03-.23,.33-4.88,4.42-8.55,9.54-8.55,13.13,0,65.94,0,65.94,0v-.59s0-8.32,0-8.32h-.58s-56.72,.01-72.12,.01c-.41,0-.81,.03-1.21,.09-6.89,1.01-10.34,8.58-6.42,14.1,1.16,1.63,2.74,2.76,4.65,3.48-1.07,.38-2.17,.52-3.3,.47-.33-.01-.49,.1-.64,.36-8.47,14.47-16.94,28.94-25.42,43.4-.65,1.11-1.3,2.22-1.98,3.36-.12-.19-.21-.34-.29-.49-4.68-7.99-9.36-15.97-14.04-23.96-4.35-7.42-8.7-14.83-13.03-22.25-.22-.37-.41-.51-.89-.45-1.27,.14-2.53-.03-3.74-.44-.07,0-.13,0-.2,0-.01,.12-.03,.25-.03,.37-.05,2.27-.85,4.26-2.42,5.95-.22,.23-.21,.38-.06,.63,3.88,6.61,7.76,13.23,11.64,19.85,6.99,11.93,13.98,23.87,20.97,35.8,.57,.97,1.14,1.94,1.75,2.97,.15-.24,.27-.42,.37-.61,7.87-13.42,15.73-26.85,23.6-40.27,3.46-5.91,6.93-11.83,10.4-17.73,.15-.26,.15-.41-.06-.63-.58-.59-1.04-1.27-1.43-2Z"/>
    <path class="cls-1" d="M69.15,12.51c4.1,.64,7.49,4.27,7.7,8.24,.02,.4,.15,.47,.54,.47,4.23-.01,8.46,0,12.69,0,.71,0,.62-.09,.62,.59,0,13.65,0,27.29,0,40.94,0,.22,0,.44,.01,.65,.12,2.74,2.44,5.01,5.3,5.17,3.4,.2,6.1-2.3,6.1-5.64,0-13.72,0-27.45-.01-41.17,0-.46,.12-.56,.59-.56,4.03,.02,8.07,0,12.1,.01,.29,0,.49,.02,.53-.39,.29-3.36,2.02-5.84,5.1-7.46,1.03-.54,2.16-.82,3.31-1.03h-55.4s0,.03,0,.05c.27,.04,.54,.08,.81,.12Z"/>
    <path class="cls-1" d="M49.58,32.59H26.94c-3.31,0-8,0-12.33,0H3.01v8.9s.6,.01,.6,.01c0,0,4.65,0,11.01,0,8.71,0,20.62,0,28.17,0,.54,0,1.07,.02,1.61,.08,2.52,.28,4.81,1.66,6.33,3.59,1.06,1.35,1.73,2.96,1.84,4.65q.03,.52,.56,.31c2.45-.94,4.29-2.76,5.24-4.95,.69-1.62,.91-3.45,.53-5.3-.85-4.2-4.78-7.27-9.31-7.27Z"/>
    <path class="cls-1" d="M64.25,38.3c.07,0,.13,0,.2,0,.08-.04,.16-.1,.25-.13,.95-.39,1.8-.87,2.55-1.46,2.64-2.07,3.9-5.27,3.27-8.73-.73-4.05-4.69-7.33-8.94-7.34-15.5-.02-46.5-.01-46.5-.01h-.46v8.91s.62,0,.62,0c0,0,26.38-.01,39.57-.01,3.99,0,7.61,2.5,8.89,6.13,.3,.86,.41,1.75,.55,2.64Z"/>
    <path class="cls-1" d="M203.47,39.65v-6.52s0-.58,0-.58c0,0-45.41,0-60.61,.01-.52,0-1.04,0-1.56,.08-4.51,.61-7.74,3.8-8.26,8.14-.48,3.97,2.09,7.97,6,9.37,.29,.1,.45,.15,.46-.26,.03-1.02,.28-2.01,.74-2.93,1.79-3.62,4.8-5.47,8.98-5.48,1.7,0,3.1,0,4.35-.01v61.8h19.03v-32.09h24.44v-19.03h-24.44v-10.69c11.98-.02,30.86-.08,30.86-.08v-.55s-.01-1.19-.01-1.19h0Z"/>
    <path class="cls-1" d="M338.03,20.62l-28.15,82.65h20.16l3.38-10.02h26.01l3.27,10.02h20.04l-26.69-82.65h-18.02Zm1.91,53.6l6.87-20.04,6.53,20.04h-13.4Z"/>
    <polygon class="cls-1" points="406.38 20.5 387.35 20.5 387.35 103.27 436.56 103.27 436.56 84.24 406.38 84.24 406.38 20.5"/>
    <path class="cls-1" d="M479.12,53.5c-2.7-1.24-5.29-2.03-7.88-2.82-2.82-.9-5.4-1.8-7.54-3.04-2.25-1.46-3.15-4.5-1.91-6.87,1.91-3.83,6.42-2.59,6.98-2.59,1.69,.45,4.5,1.46,4.5,4.95h19.03c0-11.26-7.66-20.72-19.03-23.42-11.82-3.04-23.08,2.14-28.49,12.27-5.74,11.15-1.8,25.11,8.78,31.75,4.05,2.59,8.22,3.83,11.94,5.07,2.14,.79,3.94,1.24,5.63,2.03,4.28,2.14,4.73,5.52,4.73,7.09,0,1.46-.45,5.18-4.73,6.98-3.04,1.35-6.31,1.24-9.01-.56-1.46-.9-4.05-3.27-4.05-7.77h-19.03c0,9.91,4.73,18.58,12.84,23.87,4.62,3.04,9.91,4.39,15.2,4.39,4.05,0,8.11-.79,12.05-2.59,9.91-4.5,15.88-13.85,15.88-24.32s-5.97-19.93-15.88-24.44Z"/>
    <path class="cls-1" d="M212.36,59.08c.19,.14,.39,.29,.59,.42,5.46,3.62,13.02,2.69,17.92-2.21l.53-.53V20.5h-19.03V59.08Z"/>
    <path class="cls-1" d="M262.56,25.62l-2.67-4.78h-20.72v28.17l16.18-16.18c2.03-2.03,4.56-4.56,7.22-7.22Z"/>
    <path class="cls-1" d="M212.75,69.78c-.13-.06-.26-.13-.39-.19v11.22c5.3,2.66,12.05,1.52,16.56-2.98l2.47-2.47v-11.95c-1,1-1.96,1.96-2.86,2.86-4.32,4.32-10.47,6.05-15.78,3.51Z"/>
    <path class="cls-1" d="M239.16,55.63v11.96l14.23-14.23c2.82-2.82,10.45-10.45,15.84-15.83l-4.3-7.68c-6.45,6.45-16.73,16.74-25.76,25.78Z"/>
  </g>
  <g>
    <path class="cls-1" d="M251.44,73.94c1.1-1.1,3.64-3.64,6.75-6.75v-12.01c-5.59,5.59-12.53,12.54-19.03,19.04v12l12.28-12.28Z"/>
    <path class="cls-1" d="M226.97,98.41l4.42-4.42v-12c-1.72,1.72-3.34,3.34-4.81,4.81-3.9,3.9-9.3,5.68-14.22,4.12v11.27c4.93,1.55,10.64,.19,14.61-3.78Z"/>
    <path class="cls-1" d="M286.8,20.84v48.08l-8.52-15.22-10.88,10.88s-.91,.91-2.48,2.48l20.3,36.2h20.61V20.84h-19.03Z"/>
    <path class="cls-1" d="M275.91,49.48l-4.32-7.71-2.25,2.25s-4.64,4.65-11.12,11.13l4.32,7.7c4.82-4.81,10.03-10.03,13.36-13.36Z"/>
    <path class="cls-1" d="M228.74,103.27h2.65v-2.66c-.91,.91-1.8,1.8-2.65,2.66Z"/>
    <path class="cls-1" d="M239.16,92.84v10.43h19.03v-29.47c-5.34,5.35-12.32,12.33-19.03,19.04Z"/>
  </g>
</svg>