<?xml version="1.0" encoding="UTF-8"?>
<svg id="Layer_1" data-name="Layer 1" xmlns="http://www.w3.org/2000/svg" viewBox="0 0 267 76">
  <defs>
    <style>
      .cls-1 {
        fill: #fff;
      }
    </style>
  </defs>
  <path id="Layer_2" data-name="Layer 2" class="cls-1" d="M141.9,18.2c-.3,1.1-.6,1.9-1.9,1.9s-4.1-1.9-8.6-1.9c-10.3,0-12,7.6-12,10.8s0,7.1,9.3,11.7l3.7,1.7c3.6,1.7,6.2,3,6.2,6.7s-.3,6.1-6.8,6.1-10.1-6.2-11.3-11.7h-1.5v13.5h1.5c.2-.9,.5-1.9,1.6-1.9,1.7,0,4.1,1.9,9.3,1.9,10.1,0,13.6-6.5,13.6-11.4s-2.3-8.1-6.1-10l-8.1-4c-4.6-2.3-5.6-3.5-5.6-6.4,0-2.9,2.5-5.3,5.4-5.3,.2,0,.3,0,.5,0,6.4,0,9.7,6.3,10.7,10.1h1.5v-11.8h-1.5Zm-91.9,0c-2.3,0-4.2,1.8-4.2,4.1h0c0,2.3,1.7,4.1,3.9,4.2h.3c2.3,0,4.1-1.8,4.2-4.1h0c0-2.4-1.9-4.4-4.2-4.4h0Zm159.5,0c-2.3,0-4.2,1.9-4.2,4.2h0c0,2.3,1.9,4.2,4.2,4.2s4.2-1.9,4.2-4.2-1.9-4.2-4.2-4.2h0ZM7.4,19.1v1.4c2.3,.4,3.2,.6,4.6,3.8l14,32.7h1.4l12.4-32c1.1-3.1,1.9-4.1,4.9-4.4v-1.4h-11.7v1.4c3.1,.2,4.7,.4,4.7,2.5-.2,1.3-.6,2.6-1.1,3.8l-6.9,17.9-7.1-17.3c-.8-1.5-1.3-3.1-1.6-4.7,0-2.1,1.3-2.1,4.7-2.3v-1.4H7.4Zm235,6.3c-2.2,0-4,1.8-4,4s1.8,4,4,4h0c2.2,0,4-1.8,4-4h0c0-2.2-1.9-4-4.1-4h0Zm0,.7c1.8,0,3.3,1.5,3.4,3.4,0,1.8-1.5,3.4-3.3,3.4h0c-1.9-.1-3.3-1.8-3.1-3.6,.1-1.7,1.4-3,3.1-3.1Zm-1.5,1.1v4.6h.7v-1.9h.9l1.3,1.9h.8l-1.3-2c.6,0,1.1-.5,1.1-1.1h0c0-1-.5-1.4-1.6-1.4h-1.7Zm.7,.5h1c.5,0,1.1,0,1.1,.7s-.6,.8-1.2,.8h-.9v-1.4Zm-172.7,2.5c-6.3,0-11.3,5.2-11.3,13.3s5.6,13.5,11.1,13.5,7.5-1.7,10.8-6.8l-1.3-.8c-1.4,2.1-3.6,3.4-6.1,3.6-5.2,0-6.4-5.6-6.5-10.2h13.8c-.2-3-1-12.6-10.4-12.6Zm90.9,0c-7.6,0-12.3,6.4-12.3,13.3s4.7,13.3,12.3,13.3,12.3-6,12.3-13.3-5.1-13.3-12.3-13.3Zm31.6,0c-3.3,0-6.2,1.8-7.8,4.6h0v-4h-10.5v1.3c2.2,.3,2.9,.8,2.9,3.3v16.1c0,2.7-1,2.9-2.9,3.3v1.4h13.2v-1.4c-1.5,0-2.7-1.1-2.7-2.5,0-.2,0-.4,0-.5v-14.6c1-1.7,2.7-2.9,4.6-3.2,3,0,3,3.1,3,4.6v13.3c0,2-.8,3-2.6,3.1v1.3h12.9v-1.3c-2.6,0-2.6-1.9-2.6-3.1v-13.9c.4-3.9-2.5-7.4-6.5-7.8-.3,0-.7,0-1,0Zm38.5,0c-5.1,0-12.8,3.4-12.8,14.2s4.7,12.5,11.7,12.5c4.2,0,8.1-2.2,10.4-5.7l-1-1c-1.4,1.9-3.5,3.1-5.9,3.1-4.2,0-7.6-4.4-7.6-12.1s.4-9.2,4.6-9.2,2.1,.9,2.2,2h0c0,3.1,0,5.7,3.1,5.7,1.9,.2,3.6-1.1,3.8-3,0-.2,0-.3,0-.4,0-3.8-4.6-5.9-8.5-5.9h0Zm-186.4,.7v1.2c2.1,.4,2.9,.8,2.9,3.3v16.1c0,2.6-1,2.8-2.9,3.3v1.3h13.1v-1.3c-2.1-.2-2.6-1.4-2.6-3.1V30.9s-10.5,0-10.5,0Zm36.9,0v1.2c1.4,.3,1.7,.7,3.1,4.2l8.1,20.5h1.4l6.7-16.6h.3l5.5,16.6h1.3l8.5-22c1-2.4,1.6-2.5,2.7-2.8v-1.2h-7.6v1.2c1.5,.2,2.6,.3,2.6,2s-2.8,7.6-4.2,11.9h0c-1-4.2-3.3-11.4-3.3-12.5s1.3-1.3,2.7-1.4v-1.2h-12.8v1.2c1.4,.2,1.9,.2,2.4,1.4,.3,.7,.6,1.7,1.2,3.7l-3.7,9.4c-2.7-7.3-4.6-11.4-4.6-12.6s1.4-1.6,2.1-1.7v-1.2h-12.2v-.2h0Zm122.5,0v1.2c2,.4,2.9,.8,2.9,3.3v16.1c0,2.6-1,2.8-2.9,3.3v1.3h13.1v-1.3c-2.1-.2-2.6-1.4-2.6-3.1V30.9s-10.5,0-10.5,0Zm-133.7,1c1.5,0,2.8,1.1,2.9,2.6,.3,2,.5,4.1,.5,6.2h-7.3c0-7.6,1.9-8.8,3.8-8.8h.1Zm90.7,0c3.4,0,4.2,3.3,4.2,11.7s-.5,11.6-4.2,11.6-4.3-5.7-4.3-11.6,.3-11.7,4.3-11.7Z"/>
</svg>